<svg width="230" height="315" viewBox="0 0 230 315" fill="none" xmlns="http://www.w3.org/2000/svg">
<g id="ADD">
<rect width="230" height="315" fill="#FFF8F4" fill-opacity="0.79"/>
<g id="ICON">
<g id="bars-sounds">
<path id="bar-bertical" d="M115.247 218C111.293 218 107.971 214.222 107.971 209.724V106.276C107.971 101.778 111.293 98 115.247 98C119.202 98 122.523 101.778 122.523 106.276V209.724C122.681 214.222 119.36 218 115.247 218Z" fill="#FFF8F4" fill-opacity="0.79"/>
<path id="bar-horizontal" d="M175.5 158.003C175.5 161.941 171.706 165.248 167.19 165.248H63.3103C58.7939 165.248 55 161.941 55 158.003C55 154.065 58.7939 150.757 63.3103 150.757H167.19C171.706 150.6 175.5 153.907 175.5 158.003Z" fill="#FFF8F4" fill-opacity="0.79"/>
</g>
</g>
</g>
</svg>
