<?xml version="1.0" encoding="utf-8"?>
<!-- Generator: Adobe Illustrator 22.0.0, SVG Export Plug-In . SVG Version: 6.00 Build 0)  -->
<svg version="1.1" id="Layer_1" xmlns="http://www.w3.org/2000/svg" xmlns:xlink="http://www.w3.org/1999/xlink" x="0px" y="0px"
	 viewBox="0 0 24 24" style="enable-background:new 0 0 24 24;" xml:space="preserve">
<style type="text/css">
	.st0{fill:#FFFFFF;}
</style>
<g>
	<g>
		<path class="st0" d="M9.8,18.3L9.8,18.3c-0.3,0-0.5-0.2-0.5-0.5V11c0-0.3,0.2-0.5,0.5-0.5h0c0.3,0,0.5,0.2,0.5,0.5v6.8
			C10.4,18.1,10.1,18.3,9.8,18.3z"/>
		<path class="st0" d="M14.2,18.3L14.2,18.3c-0.3,0-0.5-0.2-0.5-0.5V11c0-0.3,0.2-0.5,0.5-0.5h0c0.3,0,0.5,0.2,0.5,0.5v6.8
			C14.7,18.1,14.5,18.3,14.2,18.3z"/>
		<path class="st0" d="M12,17.3L12,17.3c-0.3,0-0.5-0.2-0.5-0.5V12c0-0.3,0.2-0.5,0.5-0.5h0c0.3,0,0.5,0.2,0.5,0.5v4.8
			C12.5,17.1,12.3,17.3,12,17.3z"/>
		<path class="st0" d="M7.6,16.6L7.6,16.6c-0.3,0-0.5-0.2-0.5-0.5v-3.3c0-0.3,0.2-0.5,0.5-0.5h0c0.3,0,0.5,0.2,0.5,0.5v3.3
			C8.2,16.4,7.9,16.6,7.6,16.6z"/>
		<path class="st0" d="M16.4,16.6L16.4,16.6c-0.3,0-0.5-0.2-0.5-0.5v-3.3c0-0.3,0.2-0.5,0.5-0.5h0c0.3,0,0.5,0.2,0.5,0.5v3.3
			C16.9,16.4,16.7,16.6,16.4,16.6z"/>
	</g>
	<path class="st0" d="M18.7,6.4h-0.4V2.9c0-0.7-0.6-1.3-1.3-1.3H7.1c-0.7,0-1.3,0.6-1.3,1.3v3.5H5.3C4.6,6.4,4,7,4,7.7v13.3
		c0,0.7,0.6,1.3,1.3,1.3h13.3c0.7,0,1.3-0.6,1.3-1.3V7.7C20,7,19.4,6.4,18.7,6.4z M6.7,3.4c0-0.5,0.4-0.9,0.9-0.9h8.9
		c0.5,0,0.9,0.4,0.9,0.9v3H6.7V3.4z M18.8,20.3c0,0.5-0.4,0.9-0.9,0.9H6.1c-0.5,0-0.9-0.4-0.9-0.9V8.5c0-0.5,0.4-0.9,0.9-0.9h11.8
		c0.5,0,0.9,0.4,0.9,0.9V20.3z"/>
</g>
</svg>
