<svg width="214" height="251" viewBox="0 0 214 251" fill="none" xmlns="http://www.w3.org/2000/svg">
<g id="Group 1">
<g id="TEXT">
<g id="MUSIC STORE">
<path id="Vector" d="M51.5517 250.385V240.725L46.9914 248.81H46.1983L41.6379 240.83V250.385H39.9526V237.155H41.4397L46.694 246.5L51.8491 237.155H53.3362V250.385H51.5517Z" fill="black"/>
<path id="Vector_2" d="M58.2931 249.02C57.4009 247.97 56.9052 246.605 56.9052 244.715V237.155H58.6897V244.61C58.6897 247.445 59.8793 248.81 62.1595 248.81C63.3491 248.81 64.1422 248.495 64.7371 247.76C65.3319 247.025 65.6293 245.975 65.6293 244.505V237.05H67.3147V244.61C67.3147 246.5 66.819 247.97 65.9267 248.915C65.0345 249.86 63.7457 250.385 62.0603 250.385C60.375 250.385 59.1853 249.965 58.2931 249.02Z" fill="black"/>
<path id="Vector_3" d="M71.9741 250.07C71.0819 249.755 70.3879 249.335 69.8922 248.915L70.5862 247.445C71.0819 247.865 71.6767 248.285 72.3707 248.6C73.1638 248.915 73.8578 249.02 74.6509 249.02C75.6422 249.02 76.4353 248.81 76.931 248.495C77.4267 248.075 77.7241 247.655 77.7241 247.025C77.7241 246.605 77.625 246.185 77.3276 245.87C77.0302 245.555 76.7328 245.345 76.3362 245.24C75.9397 245.135 75.3448 244.925 74.5517 244.715C73.6595 244.505 72.8664 244.19 72.2716 243.98C71.6767 243.77 71.181 243.35 70.7845 242.825C70.3879 242.3 70.1897 241.67 70.1897 240.83C70.1897 240.095 70.3879 239.465 70.6853 238.94C71.0819 238.415 71.5776 237.89 72.2716 237.575C72.9655 237.26 73.8578 237.05 74.9483 237.05C75.6422 237.05 76.4353 237.155 77.1293 237.365C77.8233 237.575 78.4181 237.89 79.0129 238.205L78.4181 239.675C77.9224 239.36 77.3276 239.045 76.7328 238.835C76.1379 238.625 75.5431 238.52 74.9483 238.52C73.9569 238.52 73.1638 238.73 72.6681 239.15C72.1724 239.57 71.875 240.095 71.875 240.62C71.875 241.04 71.9741 241.46 72.2716 241.775C72.569 242.09 72.8664 242.3 73.3621 242.405C73.7586 242.615 74.3535 242.72 75.0474 242.93C75.9397 243.14 76.7328 243.455 77.3276 243.665C77.9224 243.875 78.4181 244.295 78.8147 244.715C79.2112 245.135 79.4095 245.87 79.4095 246.71C79.4095 247.445 79.2112 248.075 78.9138 248.6C78.6164 249.125 78.0216 249.65 77.3276 249.965C76.6336 250.28 75.7414 250.49 74.6509 250.49C73.7586 250.49 72.8664 250.28 71.9741 250.07Z" fill="black"/>
<path id="Vector_4" d="M82.1853 237.155H83.9698V250.385H82.1853V237.155Z" fill="black"/>
<path id="Vector_5" d="M89.9181 249.65C88.9267 249.02 88.1336 248.285 87.5388 247.235C86.944 246.185 86.6466 245.03 86.6466 243.77C86.6466 242.51 86.944 241.355 87.5388 240.305C88.1336 239.255 88.9267 238.52 89.9181 237.89C90.9095 237.26 92.0991 237.05 93.2888 237.05C94.2802 237.05 95.1724 237.26 95.9655 237.575C96.7586 237.89 97.4526 238.415 98.0474 239.15L96.8578 240.305C95.9655 239.255 94.7759 238.73 93.3879 238.73C92.4957 238.73 91.6035 238.94 90.9095 239.36C90.1164 239.78 89.6207 240.41 89.125 241.145C88.7284 241.88 88.5302 242.825 88.5302 243.77C88.5302 244.715 88.7284 245.555 89.125 246.395C89.5216 247.13 90.1164 247.76 90.9095 248.18C91.7026 248.6 92.4957 248.81 93.3879 248.81C94.7759 248.81 95.9655 248.285 96.8578 247.235L98.0474 248.39C97.4526 249.02 96.7586 249.545 95.9655 249.965C95.1724 250.385 94.2802 250.49 93.2888 250.49C92 250.49 90.9095 250.175 89.9181 249.65Z" fill="black"/>
<path id="Vector_6" d="M106.375 250.07C105.483 249.755 104.789 249.335 104.293 248.915L104.987 247.445C105.483 247.865 106.078 248.285 106.772 248.6C107.565 248.915 108.259 249.02 109.052 249.02C110.043 249.02 110.836 248.81 111.332 248.495C111.828 248.075 112.125 247.655 112.125 247.025C112.125 246.605 112.026 246.185 111.728 245.87C111.431 245.555 111.134 245.345 110.737 245.24C110.341 245.135 109.746 244.925 108.953 244.715C108.06 244.505 107.267 244.19 106.672 243.98C106.078 243.77 105.582 243.35 105.185 242.825C104.789 242.3 104.591 241.67 104.591 240.83C104.591 240.095 104.789 239.465 105.086 238.94C105.483 238.415 105.978 237.89 106.672 237.575C107.366 237.26 108.259 237.05 109.349 237.05C110.043 237.05 110.836 237.155 111.53 237.365C112.224 237.575 112.819 237.89 113.414 238.205L112.819 239.675C112.323 239.36 111.728 239.045 111.134 238.835C110.539 238.625 109.944 238.52 109.349 238.52C108.358 238.52 107.565 238.73 107.069 239.15C106.573 239.57 106.276 240.095 106.276 240.62C106.276 241.04 106.375 241.46 106.672 241.775C106.97 242.09 107.267 242.3 107.763 242.405C108.159 242.615 108.754 242.72 109.448 242.93C110.341 243.14 111.134 243.455 111.728 243.665C112.323 243.875 112.819 244.295 113.216 244.715C113.612 245.135 113.81 245.87 113.81 246.71C113.81 247.445 113.612 248.075 113.315 248.6C113.017 249.125 112.422 249.65 111.728 249.965C111.034 250.28 110.142 250.49 109.052 250.49C108.06 250.49 107.168 250.28 106.375 250.07Z" fill="black"/>
<path id="Vector_7" d="M118.767 238.73H114.504V237.05H124.815V238.73H120.552V250.28H118.767V238.73Z" fill="black"/>
<path id="Vector_8" d="M128.879 249.65C127.888 249.02 127.095 248.285 126.5 247.235C125.905 246.185 125.608 245.03 125.608 243.77C125.608 242.51 125.905 241.355 126.5 240.305C127.095 239.255 127.888 238.415 128.879 237.89C129.871 237.365 131.06 237.05 132.25 237.05C133.539 237.05 134.629 237.365 135.621 237.89C136.612 238.52 137.405 239.255 138 240.305C138.595 241.355 138.892 242.51 138.892 243.77C138.892 245.03 138.595 246.185 138 247.235C137.405 248.285 136.612 249.02 135.621 249.65C134.629 250.28 133.44 250.49 132.25 250.49C130.961 250.49 129.871 250.175 128.879 249.65ZM134.728 248.18C135.422 247.76 136.017 247.13 136.414 246.395C136.81 245.66 137.009 244.715 137.009 243.77C137.009 242.825 136.81 241.985 136.414 241.145C136.017 240.305 135.422 239.78 134.728 239.36C134.034 238.94 133.142 238.73 132.25 238.73C131.358 238.73 130.466 238.94 129.772 239.36C128.978 239.78 128.483 240.41 127.987 241.145C127.491 241.88 127.392 242.825 127.392 243.77C127.392 244.715 127.591 245.555 127.987 246.395C128.384 247.235 128.978 247.76 129.772 248.18C130.565 248.6 131.358 248.81 132.25 248.81C133.142 248.81 134.034 248.6 134.728 248.18Z" fill="black"/>
<path id="Vector_9" d="M149.996 250.385L147.319 246.29C147.022 246.29 146.724 246.29 146.526 246.29H143.453V250.28H141.668V237.05H146.526C148.112 237.05 149.401 237.47 150.392 238.31C151.284 239.15 151.78 240.305 151.78 241.67C151.78 242.72 151.582 243.56 151.086 244.295C150.591 245.03 149.897 245.555 149.004 245.87L151.978 250.28H149.996V250.385ZM149.004 243.875C149.599 243.35 149.897 242.615 149.897 241.67C149.897 240.725 149.599 239.99 149.004 239.465C148.409 238.94 147.517 238.73 146.427 238.73H143.353V244.715H146.427C147.517 244.715 148.409 244.4 149.004 243.875Z" fill="black"/>
<path id="Vector_10" d="M163.677 248.705V250.385H154.655V237.155H163.478V238.835H156.44V242.93H162.685V244.505H156.44V248.81H163.677V248.705Z" fill="black"/>
</g>
<g id="SOUNDBOX">
<path id="&#38;copy" d="M207.991 170.585C208.784 170.585 209.677 170.795 210.47 171.215C211.263 171.635 211.858 172.265 212.353 173.105C212.75 173.945 213.047 174.785 213.047 175.73C213.047 176.675 212.849 177.515 212.353 178.355C211.957 179.195 211.263 179.825 210.569 180.35C209.776 180.77 208.983 181.085 208.091 181.085C207.198 181.085 206.405 180.875 205.612 180.35C204.819 179.93 204.224 179.195 203.728 178.355C203.332 177.515 203.034 176.675 203.034 175.73C203.034 174.785 203.233 173.945 203.728 173.105C204.125 172.265 204.819 171.635 205.612 171.215C206.405 170.795 207.198 170.585 207.991 170.585ZM207.991 171.425C207.297 171.425 206.603 171.635 205.909 171.95C205.216 172.265 204.72 172.895 204.323 173.525C203.927 174.26 203.728 174.995 203.728 175.73C203.728 176.465 203.927 177.2 204.323 177.935C204.72 178.67 205.216 179.195 205.81 179.51C206.405 179.825 207.198 180.14 207.892 180.14C208.586 180.14 209.28 179.93 209.974 179.51C210.668 179.09 211.164 178.565 211.461 177.935C211.858 177.2 211.957 176.57 211.957 175.73C211.957 174.995 211.759 174.26 211.362 173.525C210.966 172.79 210.47 172.265 209.776 171.95C209.082 171.635 208.685 171.425 207.991 171.425ZM205.81 178.775V173.105H207.595C208.19 173.105 208.685 173.105 208.983 173.21C209.28 173.315 209.478 173.525 209.677 173.735C209.875 173.945 209.974 174.26 209.974 174.575C209.974 174.995 209.875 175.31 209.578 175.625C209.28 175.94 208.884 176.15 208.487 176.15C208.685 176.255 208.784 176.36 208.983 176.465C209.181 176.675 209.478 177.095 209.776 177.62L210.47 178.775H209.379L208.884 177.935C208.487 177.2 208.19 176.78 207.991 176.57C207.793 176.465 207.595 176.36 207.297 176.36H206.802V178.775H205.81ZM206.703 175.52H207.793C208.289 175.52 208.586 175.415 208.784 175.31C208.983 175.205 209.082 174.995 209.082 174.68C209.082 174.47 209.082 174.365 208.983 174.26C208.884 174.155 208.784 174.05 208.586 173.945C208.388 173.84 208.19 173.84 207.694 173.84H206.703V175.52Z" fill="black"/>
<path id="X" d="M184.198 200.93L176.466 177.935H183.802L188.461 193.16H188.56L193.418 177.935H200.06L192.328 200.93L200.358 225.08H193.022L187.966 208.7H187.866L182.612 225.08H175.97L184.198 200.93Z" fill="black"/>
<path id="O" d="M156.44 222.665C154.655 220.565 153.664 217.73 153.664 213.95V189.17C153.664 185.39 154.556 182.45 156.44 180.455C158.224 178.355 160.901 177.305 164.371 177.305C167.841 177.305 170.418 178.355 172.302 180.455C174.086 182.555 175.078 185.39 175.078 189.17V213.845C175.078 217.625 174.185 220.565 172.302 222.56C170.517 224.66 167.841 225.71 164.371 225.71C160.901 225.71 158.224 224.66 156.44 222.665ZM167.94 214.37V188.645C167.94 185.495 166.75 184.025 164.272 184.025C161.892 184.025 160.603 185.6 160.603 188.645V214.37C160.603 217.52 161.793 218.99 164.272 218.99C166.75 218.99 167.94 217.415 167.94 214.37Z" fill="black"/>
<path id="B" d="M129.177 177.935H139.685C143.254 177.935 145.931 178.775 147.616 180.56C149.302 182.345 150.095 185.075 150.095 188.75V190.64C150.095 193.055 149.698 195.05 149.004 196.52C148.31 198.095 147.121 199.145 145.634 199.775V199.88C149.103 201.14 150.888 204.395 150.888 209.75V213.74C150.888 217.415 149.996 220.145 148.211 222.035C146.427 223.925 143.75 224.87 140.28 224.87H129.276V177.935H129.177ZM138.892 197.045C140.28 197.045 141.371 196.625 142.065 195.89C142.759 195.155 143.155 193.895 143.155 192.005V189.38C143.155 187.7 142.858 186.44 142.263 185.705C141.668 184.97 140.776 184.55 139.586 184.55H136.216V197.045H138.892ZM140.181 218.255C141.371 218.255 142.362 217.94 142.957 217.205C143.552 216.47 143.849 215.315 143.849 213.635V209.54C143.849 207.335 143.453 205.865 142.759 205.025C142.065 204.185 140.875 203.765 139.289 203.765H136.216V218.255H140.181Z" fill="black"/>
<path id="D" d="M103.996 177.935H114.703C118.172 177.935 120.75 178.88 122.534 180.875C124.319 182.87 125.112 185.705 125.112 189.59V213.425C125.112 217.205 124.22 220.145 122.534 222.14C120.75 224.135 118.172 225.08 114.703 225.08H103.996V177.935ZM114.504 218.255C115.694 218.255 116.487 217.94 117.181 217.205C117.776 216.47 118.073 215.315 118.073 213.74V189.275C118.073 187.7 117.776 186.44 117.181 185.81C116.586 185.075 115.694 184.76 114.504 184.76H110.935V218.465H114.504V218.255Z" fill="#FF7511"/>
<path id="N" d="M77.5259 177.935H86.3491L93.1897 206.18H93.2888V177.935H99.5345V225.08H92.3966L83.9698 190.64H83.6724V225.08H77.4267V177.935H77.5259Z" fill="#FF7511"/>
<path id="U" d="M55.0216 222.665C53.2371 220.67 52.3448 217.73 52.3448 213.845V177.935H59.3836V214.475C59.3836 216.05 59.681 217.31 60.2759 217.94C60.8707 218.675 61.7629 218.99 62.9526 218.99C64.1422 218.99 64.9354 218.675 65.6293 217.94C66.2241 217.205 66.5216 216.05 66.5216 214.475V177.935H73.2629V213.845C73.2629 217.625 72.3707 220.565 70.5862 222.665C68.8017 224.66 66.2241 225.71 62.8535 225.71C59.3836 225.71 56.806 224.66 55.0216 222.665Z" fill="#FF7511"/>
<path id="O_2" d="M30.0388 222.665C28.2543 220.565 27.2629 217.73 27.2629 213.95V189.17C27.2629 185.39 28.1552 182.45 30.0388 180.455C31.8233 178.355 34.5 177.305 37.9698 177.305C41.4397 177.305 44.0172 178.355 45.9009 180.455C47.6853 182.555 48.6767 185.39 48.6767 189.17V213.845C48.6767 217.625 47.7845 220.565 45.9009 222.56C44.1164 224.66 41.4397 225.71 37.9698 225.71C34.5 225.71 31.8233 224.66 30.0388 222.665ZM41.5388 214.37V188.645C41.5388 185.495 40.3491 184.025 37.8707 184.025C35.4914 184.025 34.2026 185.6 34.2026 188.645V214.37C34.2026 217.52 35.3922 218.99 37.8707 218.99C40.25 218.99 41.5388 217.415 41.5388 214.37Z" fill="#FF7511"/>
<path id="S" d="M6.14655 222.665C4.36207 220.67 3.56897 217.73 3.56897 213.845V211.115H10.2112V214.37C10.2112 217.415 11.4009 218.99 13.8793 218.99C15.069 218.99 15.9612 218.57 16.556 217.835C17.1509 217.1 17.4483 215.945 17.4483 214.265C17.4483 212.27 17.0517 210.59 16.1595 209.015C15.2672 207.545 13.7802 205.655 11.5 203.555C8.625 200.825 6.64224 198.41 5.45259 196.205C4.26293 194 3.76725 191.585 3.76725 188.855C3.76725 185.18 4.65948 182.24 6.44397 180.245C8.22845 178.25 10.806 177.2 14.1767 177.2C17.5474 177.2 20.0259 178.25 21.8103 180.245C23.4957 182.24 24.3879 185.18 24.3879 189.065V191.06H17.7457V188.645C17.7457 187.07 17.4483 185.81 16.8535 185.075C16.2586 184.34 15.3664 183.92 14.2759 183.92C11.8966 183.92 10.806 185.39 10.806 188.435C10.806 190.115 11.2026 191.69 12.0948 193.265C12.9871 194.735 14.5733 196.52 16.8535 198.62C19.8276 201.35 21.8103 203.765 22.9009 205.97C23.9914 208.175 24.5862 210.8 24.5862 213.74C24.5862 217.625 23.694 220.565 21.9095 222.665C20.125 224.765 17.4483 225.815 14.0776 225.815C10.4095 225.71 7.93104 224.66 6.14655 222.665Z" fill="#FF7511"/>
</g>
</g>
<g id="ICON">
<g id="bars-sounds">
<path id="bar-sound-5" d="M138.099 111.89C135.621 111.89 133.539 109.685 133.539 107.06V77.345C133.539 74.72 135.621 72.515 138.099 72.515C140.578 72.515 142.659 74.72 142.659 77.345V107.06C142.659 109.685 140.578 111.89 138.099 111.89Z" fill="#FF7511"/>
<path id="bar-sound-4" d="M119.659 127.22C117.181 127.22 115.099 125.015 115.099 122.39V62.015C115.099 59.39 117.181 57.185 119.659 57.185C122.138 57.185 124.22 59.39 124.22 62.015V122.39C124.319 125.015 122.237 127.22 119.659 127.22Z" fill="#FF7511"/>
<path id="bar-sound-3" d="M101.319 118.19C98.8405 118.19 96.7586 115.985 96.7586 113.36V70.94C96.7586 68.315 98.8405 66.11 101.319 66.11C103.797 66.11 105.879 68.315 105.879 70.94V113.36C105.978 116.09 103.897 118.19 101.319 118.19Z" fill="#FF7511"/>
<path id="bar-sound-2" d="M82.9784 127.22C80.5 127.22 78.4181 125.015 78.4181 122.39V62.015C78.4181 59.39 80.5 57.185 82.9784 57.185C85.4569 57.185 87.5388 59.39 87.5388 62.015V122.39C87.6379 125.015 85.556 127.22 82.9784 127.22Z" fill="#FF7511"/>
<path id="bar-sound-1" d="M64.6379 111.89C62.1595 111.89 60.0776 109.685 60.0776 107.06V77.345C60.0776 74.72 62.1595 72.515 64.6379 72.515C67.1164 72.515 69.1983 74.72 69.1983 77.345V107.06C69.1983 109.685 67.2155 111.89 64.6379 111.89Z" fill="#FF7511"/>
</g>
<path id="Vector_11" d="M148.211 161.66H54.5259C44.2155 161.66 35.6897 152.63 35.6897 141.71V42.59C35.6897 31.67 44.2155 22.64 54.5259 22.64H148.112C158.422 22.64 166.948 31.565 166.948 42.59V141.71C167.047 152.735 158.522 161.66 148.211 161.66Z" stroke="black" stroke-width="10" stroke-miterlimit="10"/>
<path id="Vector_12" d="M5.15517 99.29C2.28017 99.29 0 96.77 0 93.83V60.335C0 57.29 2.37931 54.875 5.15517 54.875C8.03017 54.875 10.3103 57.395 10.3103 60.335V93.83C10.3103 96.875 8.03017 99.29 5.15517 99.29Z" fill="black"/>
<path id="Vector_13" d="M197.582 99.29C194.707 99.29 192.427 96.77 192.427 93.83V60.335C192.427 57.29 194.806 54.875 197.582 54.875C200.457 54.875 202.737 57.395 202.737 60.335V93.83C202.737 96.875 200.457 99.29 197.582 99.29Z" fill="black"/>
<path id="Vector_14" d="M183.108 98.87V25.685C183.108 14.345 174.285 5 163.578 5H39.1595C28.4526 5 19.6293 14.345 19.6293 25.685V98.87" stroke="black" stroke-width="10" stroke-miterlimit="10" stroke-linecap="round"/>
</g>
</g>
</svg>
