<svg width="400" height="400" viewBox="0 0 400 400" fill="none" xmlns="http://www.w3.org/2000/svg">
<g id="iCON">
<rect id="Rectangle 1" width="400" height="400" rx="11" fill="white"/>
<path id="Vector" d="M289.714 346.667H109.714C89.9048 346.667 73.5238 330.476 73.5238 310.476V130.667C73.5238 110.667 89.9048 94.4762 109.714 94.4762H289.524C309.333 94.4762 325.714 110.667 325.714 130.667V310.476C325.905 330.476 309.524 346.667 289.714 346.667Z" stroke="black" stroke-width="17" stroke-miterlimit="10"/>
<g id="Group 2">
<path id="Vector2" d="M164.381 284.19C159.619 284.19 155.619 280.19 155.619 275.429V165.905C155.619 161.143 159.619 157.143 164.381 157.143C169.143 157.143 173.143 161.143 173.143 165.905V275.429C173.333 280.19 169.333 284.19 164.381 284.19Z" fill="#FF540A"/>
</g>
<g id="Group 4">
<path id="Vector4" d="M234.857 284.19C230.095 284.19 226.095 280.19 226.095 275.429V165.905C226.095 161.143 230.095 157.143 234.857 157.143C239.619 157.143 243.619 161.143 243.619 165.905V275.429C243.81 280.19 239.81 284.19 234.857 284.19Z" fill="#FF540A"/>
</g>
<g id="Group 3">
<path id="Vector3" d="M199.619 268C194.857 268 190.857 264 190.857 259.238V182.095C190.857 177.333 194.857 173.333 199.619 173.333C204.381 173.333 208.381 177.333 208.381 182.095V259.048C208.571 264 204.571 268 199.619 268Z" fill="#FF540A"/>
</g>
<g id="Group 1">
<path id="Vector1" d="M129.143 256.381C124.381 256.381 120.381 252.381 120.381 247.619V193.714C120.381 188.952 124.381 184.952 129.143 184.952C133.905 184.952 137.905 188.952 137.905 193.714V247.619C137.905 252.381 134.095 256.381 129.143 256.381Z" fill="#FF540A"/>
</g>
<g id="Group 5">
<path id="Vector5" d="M270.286 256.381C265.524 256.381 261.524 252.381 261.524 247.619V193.714C261.524 188.952 265.524 184.952 270.286 184.952C275.048 184.952 279.048 188.952 279.048 193.714V247.619C279.048 252.381 275.048 256.381 270.286 256.381Z" fill="#FF540A"/>
</g>
<path id="Vector_2" d="M14.8571 233.524C9.33333 233.524 4.95238 228.952 4.95238 223.619V162.857C4.95238 157.333 9.52381 152.952 14.8571 152.952C20.381 152.952 24.7619 157.524 24.7619 162.857V223.619C24.7619 229.143 20.381 233.524 14.8571 233.524Z" fill="black"/>
<path id="Vector_3" d="M384.571 233.524C379.048 233.524 374.667 228.952 374.667 223.619V162.857C374.667 157.333 379.238 152.952 384.571 152.952C390.095 152.952 394.476 157.524 394.476 162.857V223.619C394.476 229.143 390.095 233.524 384.571 233.524Z" fill="black"/>
<path id="Vector_4" d="M357.095 232.762V100C357.095 79.4286 340.143 62.4762 319.571 62.4762H80.5238C59.9524 62.4762 43 79.4286 43 100V232.762" stroke="black" stroke-width="17" stroke-miterlimit="10" stroke-linecap="round"/>
</g>
</svg>
