<svg width="195" height="195" viewBox="0 0 195 195" fill="none" xmlns="http://www.w3.org/2000/svg">
<g id="iCON">
<rect id="Rectangle 1" width="195" height="195" rx="11" fill="#FF540A"/>
<path id="Vector" d="M141.236 169H53.4857C43.8286 169 35.8428 161.107 35.8428 151.357V63.7C35.8428 53.95 43.8286 46.0571 53.4857 46.0571H141.143C150.8 46.0571 158.786 53.95 158.786 63.7V151.357C158.879 161.107 150.893 169 141.236 169Z" stroke="black" fill="#fff" stroke-width="10" stroke-miterlimit="10"/>
<g id="Group 5">
<path id="Vector5" d="M135.905 135.223C132.392 135.223 129.441 132.399 129.441 129.038V90.9857C129.441 87.6243 132.392 84.8006 135.905 84.8006C139.418 84.8006 142.369 87.6243 142.369 90.9857V129.038C142.369 132.399 139.418 135.223 135.905 135.223Z" fill="#FF540a"/>
</g>
<g id="Group 4">
<path id="Vector4" d="M116.683 145.368C113.171 145.368 110.221 143.034 110.221 140.256V76.3553C110.221 73.577 113.171 71.2433 116.683 71.2433C120.195 71.2433 123.145 73.577 123.145 76.3553V140.256C123.286 143.034 120.336 145.368 116.683 145.368Z" fill="#FF540A"/>
</g>
<g id="Group 3">
<path id="Vector3" d="M97.5561 133.946C94.0442 133.946 91.0943 131.815 91.0943 129.279V88.1902C91.0943 85.6539 94.0442 83.5234 97.5561 83.5234C101.068 83.5234 104.018 85.6539 104.018 88.1902V129.177C104.158 131.815 101.208 133.946 97.5561 133.946Z" fill="#FF540A"/>
</g>
<g id="Group 2">
<path id="Vector2" d="M78.4266 144.88C74.9147 144.88 71.9647 142.546 71.9647 139.768V75.8678C71.9647 73.0895 74.9147 70.7558 78.4266 70.7558C81.9385 70.7558 84.8884 73.0895 84.8884 75.8678V139.768C85.0289 142.546 82.0789 144.88 78.4266 144.88Z" fill="#FF540A"/>
</g>
<g id="Group 1">
<path id="Vector1" d="M59.787 133.273C56.2738 133.273 53.3227 130.449 53.3227 127.088V89.0357C53.3227 85.6743 56.2738 82.8506 59.787 82.8506C63.3002 82.8506 66.2512 85.6743 66.2512 89.0357V127.088C66.2512 130.449 63.4407 133.273 59.787 133.273Z" fill="#FF540A"/>
</g>
<path id="Vector_2" d="M10.1668 116.279C7.20202 116.279 4.85062 114.051 4.85062 111.451V81.8292C4.85062 79.1363 7.30425 77.0006 10.1668 77.0006C13.1316 77.0006 15.483 79.2292 15.483 81.8292V111.451C15.483 114.143 13.1316 116.279 10.1668 116.279Z" fill="black"/>
<path id="Vector_3" d="M184.555 115.304C181.591 115.304 179.239 113.076 179.239 110.476V80.8542C179.239 78.1613 181.693 76.0256 184.555 76.0256C187.52 76.0256 189.871 78.2542 189.871 80.8542V110.476C189.871 113.168 187.52 115.304 184.555 115.304Z" fill="black"/>
<path id="Vector_4" d="M173.111 113.471V48.75C173.111 38.7214 164.926 30.4571 154.993 30.4571H39.5684C29.6355 30.4571 21.45 38.7214 21.45 48.75V113.471" stroke="black" stroke-width="9" stroke-miterlimit="10" stroke-linecap="round"/>
</g>
</svg>
