<?xml version="1.0" encoding="utf-8"?>
<!-- Generator: Adobe Illustrator 22.0.0, SVG Export Plug-In . SVG Version: 6.00 Build 0)  -->
<svg version="1.1" id="Layer_1" xmlns="http://www.w3.org/2000/svg" xmlns:xlink="http://www.w3.org/1999/xlink" x="0px" y="0px"
	 viewBox="0 0 280 300" style="enable-background:new 0 0 280 300;" xml:space="preserve">
<style type="text/css">
	.st0{fill:#FFFFFF;stroke:#FF540A;stroke-width:10;stroke-miterlimit:10;}
	.st1{fill:#FF540A;}
	.st2{fill:none;stroke:#FF540A;stroke-width:10;stroke-miterlimit:10;}
	.st3{fill:#FFFFFF;}
</style>
<g>
	<g>
		<path class="st0" d="M182.1,182.3H87.6c-10.4,0-19-8.6-19-19V68.9c0-10.5,8.6-19,19-19h94.4c10.4,0,19,8.5,19,19v94.4
			C201.1,173.8,192.5,182.3,182.1,182.3z"/>
		<g>
			<path class="st1" d="M116.3,149.5L116.3,149.5c-2.5,0-4.6-2.1-4.6-4.6V87.4c0-2.5,2.1-4.6,4.6-4.6h0c2.5,0,4.6,2.1,4.6,4.6v57.5
				C121,147.4,118.9,149.5,116.3,149.5z"/>
			<path class="st1" d="M153.3,149.5L153.3,149.5c-2.5,0-4.6-2.1-4.6-4.6V87.4c0-2.5,2.1-4.6,4.6-4.6h0c2.5,0,4.6,2.1,4.6,4.6v57.5
				C158,147.4,155.9,149.5,153.3,149.5z"/>
			<path class="st1" d="M134.8,140.9L134.8,140.9c-2.5,0-4.6-2.1-4.6-4.6V95.9c0-2.5,2.1-4.6,4.6-4.6h0c2.5,0,4.6,2.1,4.6,4.6v40.4
				C139.5,138.9,137.4,140.9,134.8,140.9z"/>
			<path class="st1" d="M97.8,134.9L97.8,134.9c-2.5,0-4.6-2.1-4.6-4.6V102c0-2.5,2.1-4.6,4.6-4.6h0c2.5,0,4.6,2.1,4.6,4.6v28.3
				C102.4,132.8,100.4,134.9,97.8,134.9z"/>
			<path class="st1" d="M171.9,134.9L171.9,134.9c-2.5,0-4.6-2.1-4.6-4.6V102c0-2.5,2.1-4.6,4.6-4.6h0c2.5,0,4.6,2.1,4.6,4.6v28.3
				C176.5,132.8,174.4,134.9,171.9,134.9z"/>
		</g>
		<path class="st1" d="M37.8,122.9L37.8,122.9c-2.9,0-5.2-2.4-5.2-5.2V85.8c0-2.9,2.4-5.2,5.2-5.2h0c2.9,0,5.2,2.4,5.2,5.2v31.9
			C43,120.6,40.7,122.9,37.8,122.9z"/>
		<path class="st1" d="M231.9,122.9L231.9,122.9c-2.9,0-5.2-2.4-5.2-5.2V85.8c0-2.9,2.4-5.2,5.2-5.2h0c2.9,0,5.2,2.4,5.2,5.2v31.9
			C237.1,120.6,234.8,122.9,231.9,122.9z"/>
		<path class="st2" d="M217.3,122.5V52.8c0-10.8-8.9-19.7-19.7-19.7H72.1c-10.8,0-19.7,8.9-19.7,19.7v69.7"/>
		<g>
			<g>
				<path class="st3" d="M38.8,240.4c-1.8-1.9-2.6-4.7-2.6-8.4v-2.6h6.7v3.1c0,2.9,1.2,4.4,3.7,4.4c1.2,0,2.1-0.4,2.7-1.1
					c0.6-0.7,0.9-1.8,0.9-3.4c0-1.9-0.4-3.5-1.3-5c-0.9-1.4-2.4-3.2-4.7-5.2c-2.9-2.6-4.9-4.9-6.1-7c-1.2-2.1-1.7-4.4-1.7-7
					c0-3.5,0.9-6.3,2.7-8.2s4.4-2.9,7.8-2.9c3.4,0,5.9,1,7.7,2.9c1.7,1.9,2.6,4.7,2.6,8.4v1.9h-6.7V208c0-1.5-0.3-2.7-0.9-3.4
					c-0.6-0.7-1.5-1.1-2.6-1.1c-2.4,0-3.5,1.4-3.5,4.3c0,1.6,0.4,3.1,1.3,4.6c0.9,1.4,2.5,3.1,4.8,5.1c3,2.6,5,4.9,6.1,7
					c1.1,2.1,1.7,4.6,1.7,7.4c0,3.7-0.9,6.5-2.7,8.5c-1.8,2-4.5,3-7.9,3C43.1,243.3,40.6,242.3,38.8,240.4z"/>
				<path class="st3" d="M62.9,240.4c-1.8-2-2.8-4.7-2.8-8.3v-23.6c0-3.6,0.9-6.4,2.8-8.3c1.8-2,4.5-3,8-3s6.1,1,8,3
					c1.8,2,2.8,4.7,2.8,8.3V232c0,3.6-0.9,6.4-2.8,8.3c-1.8,2-4.5,3-8,3S64.7,242.3,62.9,240.4z M74.5,232.5V208
					c0-3-1.2-4.4-3.7-4.4c-2.4,0-3.7,1.5-3.7,4.4v24.5c0,3,1.2,4.4,3.7,4.4C73.2,236.9,74.5,235.4,74.5,232.5z"/>
				<path class="st3" d="M88.1,240.4c-1.8-1.9-2.7-4.7-2.7-8.4v-34.2h7.1v34.8c0,1.5,0.3,2.7,0.9,3.3c0.6,0.7,1.5,1,2.7,1
					c1.2,0,2-0.3,2.7-1c0.6-0.7,0.9-1.8,0.9-3.3v-34.8h6.8V232c0,3.6-0.9,6.4-2.7,8.4c-1.8,1.9-4.4,2.9-7.8,2.9
					C92.5,243.3,89.9,242.3,88.1,240.4z"/>
				<path class="st3" d="M110.8,197.8h8.9l6.9,26.9h0.1v-26.9h6.3v44.9h-7.2l-8.5-32.8H117v32.8h-6.3V197.8z"/>
				<path class="st3" d="M137.5,197.8h10.8c3.5,0,6.1,0.9,7.9,2.8c1.8,1.9,2.6,4.6,2.6,8.3v22.7c0,3.6-0.9,6.4-2.6,8.3
					c-1.8,1.9-4.4,2.8-7.9,2.8h-10.8V197.8z M148.1,236.2c1.2,0,2-0.3,2.7-1c0.6-0.7,0.9-1.8,0.9-3.3v-23.3c0-1.5-0.3-2.7-0.9-3.3
					c-0.6-0.7-1.5-1-2.7-1h-3.6v32.1H148.1z"/>
				<path class="st1" d="M162.9,197.8h10.6c3.6,0,6.3,0.8,8,2.5c1.7,1.7,2.5,4.3,2.5,7.8v1.8c0,2.3-0.4,4.2-1.1,5.6
					c-0.7,1.5-1.9,2.5-3.4,3.1v0.1c3.5,1.2,5.3,4.3,5.3,9.4v3.8c0,3.5-0.9,6.1-2.7,7.9c-1.8,1.8-4.5,2.7-8,2.7h-11.1V197.8z
					 M172.7,216c1.4,0,2.5-0.4,3.2-1.1c0.7-0.7,1.1-1.9,1.1-3.7v-2.5c0-1.6-0.3-2.8-0.9-3.5c-0.6-0.7-1.5-1.1-2.7-1.1H170V216H172.7
					z M174,236.2c1.2,0,2.2-0.3,2.8-1c0.6-0.7,0.9-1.8,0.9-3.4v-3.9c0-2.1-0.4-3.5-1.1-4.3c-0.7-0.8-1.9-1.2-3.5-1.2H170v13.8H174z"
					/>
				<path class="st1" d="M190.4,240.4c-1.8-2-2.8-4.7-2.8-8.3v-23.6c0-3.6,0.9-6.4,2.8-8.3c1.8-2,4.5-3,8-3c3.5,0,6.1,1,8,3
					c1.8,2,2.8,4.7,2.8,8.3V232c0,3.6-0.9,6.4-2.8,8.3c-1.8,2-4.5,3-8,3C194.9,243.3,192.2,242.3,190.4,240.4z M202,232.5V208
					c0-3-1.2-4.4-3.7-4.4c-2.4,0-3.7,1.5-3.7,4.4v24.5c0,3,1.2,4.4,3.7,4.4C200.8,236.9,202,235.4,202,232.5z"/>
				<path class="st1" d="M218.4,219.7l-7.8-21.9h7.4l4.7,14.5h0.1l4.9-14.5h6.7l-7.8,21.9l8.1,23h-7.4l-5.1-15.6h-0.1l-5.3,15.6
					h-6.7L218.4,219.7z"/>
			</g>
		</g>
		<g>
			<path class="st3" d="M84.6,266.8l0-9.2l-4.6,7.7h-0.8l-4.6-7.6v9.1h-1.7v-12.6h1.5l5.3,8.9l5.2-8.9h1.5l0,12.6H84.6z"/>
			<path class="st3" d="M91.4,265.5c-0.9-1-1.4-2.3-1.4-4.1v-7.2h1.8v7.1c0,2.7,1.2,4,3.5,4c1.2,0,2-0.3,2.6-1
				c0.6-0.7,0.9-1.7,0.9-3.1v-7.1h1.7v7.2c0,1.8-0.5,3.2-1.4,4.1s-2.2,1.4-3.9,1.4S92.3,266.4,91.4,265.5z"/>
			<path class="st3" d="M105.2,266.5c-0.9-0.3-1.6-0.7-2.1-1.1l0.7-1.4c0.5,0.4,1.1,0.8,1.8,1.1c0.8,0.3,1.5,0.4,2.3,0.4
				c1,0,1.8-0.2,2.3-0.5c0.5-0.4,0.8-0.8,0.8-1.4c0-0.4-0.1-0.8-0.4-1.1c-0.3-0.3-0.6-0.5-1-0.6c-0.4-0.1-1-0.3-1.8-0.5
				c-0.9-0.2-1.7-0.5-2.3-0.7c-0.6-0.2-1.1-0.6-1.5-1.1c-0.4-0.5-0.6-1.1-0.6-1.9c0-0.7,0.2-1.3,0.5-1.8c0.4-0.5,0.9-1,1.6-1.3
				c0.7-0.3,1.6-0.5,2.7-0.5c0.7,0,1.5,0.1,2.2,0.3c0.7,0.2,1.3,0.5,1.9,0.8l-0.6,1.4c-0.5-0.3-1.1-0.6-1.7-0.8s-1.2-0.3-1.8-0.3
				c-1,0-1.8,0.2-2.3,0.6c-0.5,0.4-0.8,0.9-0.8,1.4c0,0.4,0.1,0.8,0.4,1.1c0.3,0.3,0.6,0.5,1.1,0.6c0.4,0.2,1,0.3,1.7,0.5
				c0.9,0.2,1.7,0.5,2.3,0.7s1.1,0.6,1.5,1s0.6,1.1,0.6,1.9c0,0.7-0.2,1.3-0.5,1.8s-0.9,1-1.6,1.3c-0.7,0.3-1.6,0.5-2.7,0.5
				C107,266.9,106.1,266.7,105.2,266.5z"/>
			<path class="st3" d="M115.5,254.2h1.8v12.6h-1.8V254.2z"/>
			<path class="st3" d="M123.3,266.1c-1-0.6-1.8-1.3-2.4-2.3c-0.6-1-0.9-2.1-0.9-3.3c0-1.2,0.3-2.3,0.9-3.3c0.6-1,1.4-1.7,2.4-2.3
				c1-0.6,2.2-0.8,3.4-0.8c1,0,1.9,0.2,2.7,0.5c0.8,0.3,1.5,0.8,2.1,1.5l-1.2,1.1c-0.9-1-2.1-1.5-3.5-1.5c-0.9,0-1.8,0.2-2.5,0.6
				c-0.8,0.4-1.3,1-1.8,1.7c-0.4,0.7-0.6,1.6-0.6,2.5s0.2,1.7,0.6,2.5c0.4,0.7,1,1.3,1.8,1.7c0.8,0.4,1.6,0.6,2.5,0.6
				c1.4,0,2.6-0.5,3.5-1.5l1.2,1.1c-0.6,0.6-1.3,1.1-2.1,1.5s-1.7,0.5-2.7,0.5C125.4,266.9,124.3,266.6,123.3,266.1z"/>
			<path class="st3" d="M139.9,266.5c-0.9-0.3-1.6-0.7-2.1-1.1l0.7-1.4c0.5,0.4,1.1,0.8,1.8,1.1c0.8,0.3,1.5,0.4,2.3,0.4
				c1,0,1.8-0.2,2.3-0.5c0.5-0.4,0.8-0.8,0.8-1.4c0-0.4-0.1-0.8-0.4-1.1c-0.3-0.3-0.6-0.5-1-0.6c-0.4-0.1-1-0.3-1.8-0.5
				c-0.9-0.2-1.7-0.5-2.3-0.7c-0.6-0.2-1.1-0.6-1.5-1.1c-0.4-0.5-0.6-1.1-0.6-1.9c0-0.7,0.2-1.3,0.5-1.8c0.4-0.5,0.9-1,1.6-1.3
				c0.7-0.3,1.6-0.5,2.7-0.5c0.7,0,1.5,0.1,2.2,0.3c0.7,0.2,1.3,0.5,1.9,0.8l-0.6,1.4c-0.5-0.3-1.1-0.6-1.7-0.8s-1.2-0.3-1.8-0.3
				c-1,0-1.8,0.2-2.3,0.6c-0.5,0.4-0.8,0.9-0.8,1.4c0,0.4,0.1,0.8,0.4,1.1c0.3,0.3,0.6,0.5,1.1,0.6c0.4,0.2,1,0.3,1.7,0.5
				c0.9,0.2,1.7,0.5,2.3,0.7s1.1,0.6,1.5,1s0.6,1.1,0.6,1.9c0,0.7-0.2,1.3-0.5,1.8s-0.9,1-1.6,1.3c-0.7,0.3-1.6,0.5-2.7,0.5
				C141.6,266.9,140.7,266.7,139.9,266.5z"/>
			<path class="st3" d="M152.4,255.7h-4.3v-1.6h10.4v1.6h-4.3v11h-1.8V255.7z"/>
			<path class="st3" d="M162.6,266.1c-1-0.6-1.8-1.3-2.4-2.3c-0.6-1-0.9-2.1-0.9-3.3s0.3-2.3,0.9-3.3c0.6-1,1.4-1.8,2.4-2.3
				s2.2-0.8,3.4-0.8c1.3,0,2.4,0.3,3.4,0.8c1,0.6,1.8,1.3,2.4,2.3c0.6,1,0.9,2.1,0.9,3.3c0,1.2-0.3,2.3-0.9,3.3
				c-0.6,1-1.4,1.7-2.4,2.3c-1,0.6-2.2,0.8-3.4,0.8C164.7,266.9,163.6,266.6,162.6,266.1z M168.5,264.7c0.7-0.4,1.3-1,1.7-1.7
				s0.6-1.6,0.6-2.5s-0.2-1.7-0.6-2.5s-1-1.3-1.7-1.7c-0.7-0.4-1.6-0.6-2.5-0.6c-0.9,0-1.8,0.2-2.5,0.6c-0.8,0.4-1.3,1-1.8,1.7
				s-0.6,1.6-0.6,2.5s0.2,1.7,0.6,2.5s1,1.3,1.8,1.7s1.6,0.6,2.5,0.6C166.9,265.3,167.8,265.1,168.5,264.7z"/>
			<path class="st3" d="M183.9,266.8l-2.7-3.9c-0.3,0-0.6,0-0.8,0h-3.1v3.8h-1.8v-12.6h4.9c1.6,0,2.9,0.4,3.9,1.2
				c0.9,0.8,1.4,1.9,1.4,3.2c0,1-0.2,1.8-0.7,2.5c-0.5,0.7-1.2,1.2-2.1,1.5l3,4.2H183.9z M182.9,260.6c0.6-0.5,0.9-1.2,0.9-2.1
				s-0.3-1.6-0.9-2.1c-0.6-0.5-1.5-0.7-2.6-0.7h-3.1v5.7h3.1C181.4,261.4,182.3,261.1,182.9,260.6z"/>
			<path class="st3" d="M197.7,265.2v1.6h-9.1v-12.6h8.9v1.6h-7.1v3.9h6.3v1.5h-6.3v4.1H197.7z"/>
		</g>
	</g>
	<path class="st1" d="M242.4,190.8c0.8,0,1.7,0.2,2.5,0.6c0.8,0.4,1.4,1,1.9,1.8c0.4,0.8,0.7,1.6,0.7,2.5c0,0.9-0.2,1.7-0.7,2.5
		c-0.4,0.8-1.1,1.4-1.8,1.9c-0.8,0.4-1.6,0.7-2.5,0.7s-1.7-0.2-2.5-0.7c-0.8-0.4-1.4-1.1-1.9-1.9c-0.4-0.8-0.7-1.6-0.7-2.5
		c0-0.9,0.2-1.7,0.7-2.5c0.4-0.8,1.1-1.4,1.9-1.8C240.8,191,241.6,190.8,242.4,190.8z M242.4,191.6c-0.7,0-1.4,0.2-2.1,0.5
		c-0.7,0.4-1.2,0.9-1.6,1.5c-0.4,0.7-0.6,1.4-0.6,2.1c0,0.7,0.2,1.4,0.6,2.1c0.4,0.7,0.9,1.2,1.5,1.5c0.7,0.4,1.4,0.6,2.1,0.6
		s1.4-0.2,2.1-0.6c0.7-0.4,1.2-0.9,1.5-1.5c0.4-0.7,0.5-1.3,0.5-2.1c0-0.7-0.2-1.4-0.6-2.1c-0.4-0.7-0.9-1.2-1.6-1.5
		C243.8,191.8,243.1,191.6,242.4,191.6z M240.2,198.6v-5.4h1.8c0.6,0,1.1,0,1.4,0.1c0.3,0.1,0.5,0.3,0.7,0.5
		c0.2,0.2,0.3,0.5,0.3,0.8c0,0.4-0.1,0.7-0.4,1c-0.3,0.3-0.7,0.5-1.1,0.5c0.2,0.1,0.3,0.2,0.5,0.3c0.2,0.2,0.5,0.6,0.8,1.1l0.7,1.1
		h-1.1l-0.5-0.8c-0.4-0.7-0.7-1.1-0.9-1.3c-0.2-0.1-0.4-0.2-0.7-0.2h-0.5v2.3H240.2z M241.1,195.5h1.1c0.5,0,0.8-0.1,1-0.2
		c0.2-0.2,0.3-0.3,0.3-0.6c0-0.2,0-0.3-0.1-0.4c-0.1-0.1-0.2-0.2-0.4-0.3c-0.2-0.1-0.4-0.1-0.9-0.1h-1V195.5z"/>
</g>
</svg>
