<svg width="206" height="160" viewBox="0 0 206 160" fill="none" xmlns="http://www.w3.org/2000/svg">
<g id="iCON">

<path id="Vector" d="M150.1 155H55.6C45.2 155 36.6 146.5 36.6 136V41.6C36.6 31.1 45.2 22.6 55.6 22.6H150C160.4 22.6 169 31.1 169 41.6V136C169.1 146.5 160.5 155 150.1 155Z" stroke="black" stroke-width="10" stroke-miterlimit="10"/>

<g id="Group 1">
<path id="Vector1" d="M65.8 107.6C63.3 107.6 61.2 105.5 61.2 103V74.7C61.2 72.2 63.3 70.1 65.8 70.1C68.3 70.1 70.4 72.2 70.4 74.7V103C70.4 105.5 68.4 107.6 65.8 107.6Z" fill="#FF540A"/>
</g>

<g id="Group 2">
<path id="Vector2" d="M84.3 122.2C81.8 122.2 79.7 120.1 79.7 117.6V60.1C79.7 57.6 81.8 55.5 84.3 55.5C86.8 55.5 88.9 57.6 88.9 60.1V117.6C89 120.1 86.9 122.2 84.3 122.2Z" fill="#FF540A"/>
</g>

<g id="Group 3">
<path id="Vector3" d="M102.8 113.7C100.3 113.7 98.2 111.6 98.2 109.1V68.6C98.2 66.1 100.3 64 102.8 64C105.3 64 107.4 66.1 107.4 68.6V109C107.5 111.6 105.4 113.7 102.8 113.7Z" fill="#FF540A"/>
</g>

<g id="Group 4">
<path id="Vector4" d="M121.3 122.2C118.8 122.2 116.7 120.1 116.7 117.6V60.1C116.7 57.6 118.8 55.5 121.3 55.5C123.8 55.5 125.9 57.6 125.9 60.1V117.6C126 120.1 123.9 122.2 121.3 122.2Z" fill="#FF540A"/>
</g>

<g id="Group 5">
<path id="Vector5" d="M139.9 107.6C137.4 107.6 135.3 105.5 135.3 103V74.7C135.3 72.2 137.4 70.1 139.9 70.1C142.4 70.1 144.5 72.2 144.5 74.7V103C144.5 105.5 142.4 107.6 139.9 107.6Z" fill="#FF540A"/>
</g>

<path id="Vector_2" d="M5.8 95.6C2.9 95.6 0.599998 93.2 0.599998 90.4V58.5C0.599998 55.6 3 53.3 5.8 53.3C8.7 53.3 11 55.7 11 58.5V90.4C11 93.3 8.7 95.6 5.8 95.6Z" fill="black"/>

<path id="Vector_3" d="M199.9 95.6C197 95.6 194.7 93.2 194.7 90.4V58.5C194.7 55.6 197.1 53.3 199.9 53.3C202.8 53.3 205.1 55.7 205.1 58.5V90.4C205.1 93.3 202.8 95.6 199.9 95.6Z" fill="black"/>

<path id="Vector_4" d="M185.3 95.2V25.5C185.3 14.7 176.4 5.8 165.6 5.8H40.1C29.3 5.8 20.4 14.7 20.4 25.5V95.2" stroke="blacK" stroke-width="10" stroke-miterlimit="10" stroke-linecap="round"/>

</g>
</svg>
