<?xml version="1.0" encoding="utf-8"?>
<!-- Generator: Adobe Illustrator 22.0.0, SVG Export Plug-In . SVG Version: 6.00 Build 0)  -->
<svg version="1.1" id="Layer_1" xmlns="http://www.w3.org/2000/svg" xmlns:xlink="http://www.w3.org/1999/xlink" x="0px" y="0px"
	 viewBox="0 0 200 200" style="enable-background:new 0 0 200 200;" xml:space="preserve">
<style type="text/css">
	.st0{fill:#E6E6E6;}
</style>
<g>
	<path class="st0" d="M60,172.1L60,172.1c-5.5,0-10-4.5-10-10V37.9c0-5.5,4.5-10,10-10h0c5.5,0,10,4.5,10,10v124.2
		C70,167.6,65.5,172.1,60,172.1z"/>
	<path class="st0" d="M140,172.1L140,172.1c-5.5,0-10-4.5-10-10V37.9c0-5.5,4.5-10,10-10h0c5.5,0,10,4.5,10,10v124.2
		C150,167.6,145.5,172.1,140,172.1z"/>
	<path class="st0" d="M100,153.7L100,153.7c-5.5,0-10-4.5-10-10V56.3c0-5.5,4.5-10,10-10h0c5.5,0,10,4.5,10,10v87.4
		C110,149.2,105.5,153.7,100,153.7z"/>
	<path class="st0" d="M20,140.5L20,140.5c-5.5,0-10-4.5-10-10V69.5c0-5.5,4.5-10,10-10h0c5.5,0,10,4.5,10,10v61.1
		C30,136,25.5,140.5,20,140.5z"/>
	<path class="st0" d="M180,140.5L180,140.5c-5.5,0-10-4.5-10-10V69.5c0-5.5,4.5-10,10-10h0c5.5,0,10,4.5,10,10v61.1
		C190,136,185.5,140.5,180,140.5z"/>
</g>
</svg>
