<svg id="text-soundbox" width="211" height="81" viewBox="0 0 211 81" fill="none">
    <g id="TEXT">
        <g id="MUSIC STORE">
            <path id="Vector"
                d="M48.5517 80.385V70.725L43.9914 78.81H43.1983L38.6379 70.83V80.385H36.9526V67.155H38.4397L43.694 76.5L48.8491 67.155H50.3362V80.385H48.5517Z"
                fill="black" />
            <path id="Vector_2"
                d="M55.2931 79.02C54.4009 77.97 53.9052 76.605 53.9052 74.715V67.155H55.6897V74.61C55.6897 77.445 56.8793 78.81 59.1595 78.81C60.3491 78.81 61.1422 78.495 61.7371 77.76C62.3319 77.025 62.6293 75.975 62.6293 74.505V67.05H64.3147V74.61C64.3147 76.5 63.819 77.97 62.9267 78.915C62.0345 79.86 60.7457 80.385 59.0603 80.385C57.375 80.385 56.1853 79.965 55.2931 79.02Z"
                fill="black" />
            <path id="Vector_3"
                d="M68.9741 80.07C68.0819 79.755 67.3879 79.335 66.8922 78.915L67.5862 77.445C68.0819 77.865 68.6767 78.285 69.3707 78.6C70.1638 78.915 70.8578 79.02 71.6509 79.02C72.6422 79.02 73.4353 78.81 73.931 78.495C74.4267 78.075 74.7241 77.655 74.7241 77.025C74.7241 76.605 74.625 76.185 74.3276 75.87C74.0302 75.555 73.7328 75.345 73.3362 75.24C72.9397 75.135 72.3448 74.925 71.5517 74.715C70.6595 74.505 69.8664 74.19 69.2716 73.98C68.6767 73.77 68.181 73.35 67.7845 72.825C67.3879 72.3 67.1897 71.67 67.1897 70.83C67.1897 70.095 67.3879 69.465 67.6853 68.94C68.0819 68.415 68.5776 67.89 69.2716 67.575C69.9655 67.26 70.8578 67.05 71.9483 67.05C72.6422 67.05 73.4353 67.155 74.1293 67.365C74.8233 67.575 75.4181 67.89 76.0129 68.205L75.4181 69.675C74.9224 69.36 74.3276 69.045 73.7328 68.835C73.1379 68.625 72.5431 68.52 71.9483 68.52C70.9569 68.52 70.1638 68.73 69.6681 69.15C69.1724 69.57 68.875 70.095 68.875 70.62C68.875 71.04 68.9741 71.46 69.2716 71.775C69.569 72.09 69.8664 72.3 70.3621 72.405C70.7586 72.615 71.3535 72.72 72.0474 72.93C72.9397 73.14 73.7328 73.455 74.3276 73.665C74.9224 73.875 75.4181 74.295 75.8147 74.715C76.2112 75.135 76.4095 75.87 76.4095 76.71C76.4095 77.445 76.2112 78.075 75.9138 78.6C75.6164 79.125 75.0216 79.65 74.3276 79.965C73.6336 80.28 72.7414 80.49 71.6509 80.49C70.7586 80.49 69.8664 80.28 68.9741 80.07Z"
                fill="black" />
            <path id="Vector_4" d="M79.1853 67.155H80.9698V80.385H79.1853V67.155Z" fill="black" />
            <path id="Vector_5"
                d="M86.9181 79.65C85.9267 79.02 85.1336 78.285 84.5388 77.235C83.944 76.185 83.6466 75.03 83.6466 73.77C83.6466 72.51 83.944 71.355 84.5388 70.305C85.1336 69.255 85.9267 68.52 86.9181 67.89C87.9095 67.26 89.0991 67.05 90.2888 67.05C91.2802 67.05 92.1724 67.26 92.9655 67.575C93.7586 67.89 94.4526 68.415 95.0474 69.15L93.8578 70.305C92.9655 69.255 91.7759 68.73 90.3879 68.73C89.4957 68.73 88.6035 68.94 87.9095 69.36C87.1164 69.78 86.6207 70.41 86.125 71.145C85.7284 71.88 85.5302 72.825 85.5302 73.77C85.5302 74.715 85.7284 75.555 86.125 76.395C86.5216 77.13 87.1164 77.76 87.9095 78.18C88.7026 78.6 89.4957 78.81 90.3879 78.81C91.7759 78.81 92.9655 78.285 93.8578 77.235L95.0474 78.39C94.4526 79.02 93.7586 79.545 92.9655 79.965C92.1724 80.385 91.2802 80.49 90.2888 80.49C89 80.49 87.9095 80.175 86.9181 79.65Z"
                fill="black" />
            <path id="Vector_6"
                d="M103.375 80.07C102.483 79.755 101.789 79.335 101.293 78.915L101.987 77.445C102.483 77.865 103.078 78.285 103.772 78.6C104.565 78.915 105.259 79.02 106.052 79.02C107.043 79.02 107.836 78.81 108.332 78.495C108.828 78.075 109.125 77.655 109.125 77.025C109.125 76.605 109.026 76.185 108.728 75.87C108.431 75.555 108.134 75.345 107.737 75.24C107.341 75.135 106.746 74.925 105.953 74.715C105.06 74.505 104.267 74.19 103.672 73.98C103.078 73.77 102.582 73.35 102.185 72.825C101.789 72.3 101.591 71.67 101.591 70.83C101.591 70.095 101.789 69.465 102.086 68.94C102.483 68.415 102.978 67.89 103.672 67.575C104.366 67.26 105.259 67.05 106.349 67.05C107.043 67.05 107.836 67.155 108.53 67.365C109.224 67.575 109.819 67.89 110.414 68.205L109.819 69.675C109.323 69.36 108.728 69.045 108.134 68.835C107.539 68.625 106.944 68.52 106.349 68.52C105.358 68.52 104.565 68.73 104.069 69.15C103.573 69.57 103.276 70.095 103.276 70.62C103.276 71.04 103.375 71.46 103.672 71.775C103.97 72.09 104.267 72.3 104.763 72.405C105.159 72.615 105.754 72.72 106.448 72.93C107.341 73.14 108.134 73.455 108.728 73.665C109.323 73.875 109.819 74.295 110.216 74.715C110.612 75.135 110.81 75.87 110.81 76.71C110.81 77.445 110.612 78.075 110.315 78.6C110.017 79.125 109.422 79.65 108.728 79.965C108.034 80.28 107.142 80.49 106.052 80.49C105.06 80.49 104.168 80.28 103.375 80.07Z"
                fill="black" />
            <path id="Vector_7" d="M115.767 68.73H111.504V67.05H121.815V68.73H117.552V80.28H115.767V68.73Z"
                fill="black" />
            <path id="Vector_8"
                d="M125.879 79.65C124.888 79.02 124.095 78.285 123.5 77.235C122.905 76.185 122.608 75.03 122.608 73.77C122.608 72.51 122.905 71.355 123.5 70.305C124.095 69.255 124.888 68.415 125.879 67.89C126.871 67.365 128.06 67.05 129.25 67.05C130.539 67.05 131.629 67.365 132.621 67.89C133.612 68.52 134.405 69.255 135 70.305C135.595 71.355 135.892 72.51 135.892 73.77C135.892 75.03 135.595 76.185 135 77.235C134.405 78.285 133.612 79.02 132.621 79.65C131.629 80.28 130.44 80.49 129.25 80.49C127.961 80.49 126.871 80.175 125.879 79.65ZM131.728 78.18C132.422 77.76 133.017 77.13 133.414 76.395C133.81 75.66 134.009 74.715 134.009 73.77C134.009 72.825 133.81 71.985 133.414 71.145C133.017 70.305 132.422 69.78 131.728 69.36C131.034 68.94 130.142 68.73 129.25 68.73C128.358 68.73 127.466 68.94 126.772 69.36C125.978 69.78 125.483 70.41 124.987 71.145C124.491 71.88 124.392 72.825 124.392 73.77C124.392 74.715 124.591 75.555 124.987 76.395C125.384 77.235 125.978 77.76 126.772 78.18C127.565 78.6 128.358 78.81 129.25 78.81C130.142 78.81 131.034 78.6 131.728 78.18Z"
                fill="black" />
            <path id="Vector_9"
                d="M146.996 80.385L144.319 76.29C144.022 76.29 143.724 76.29 143.526 76.29H140.453V80.28H138.668V67.05H143.526C145.112 67.05 146.401 67.47 147.392 68.31C148.284 69.15 148.78 70.305 148.78 71.67C148.78 72.72 148.582 73.56 148.086 74.295C147.591 75.03 146.897 75.555 146.004 75.87L148.978 80.28H146.996V80.385ZM146.004 73.875C146.599 73.35 146.897 72.615 146.897 71.67C146.897 70.725 146.599 69.99 146.004 69.465C145.409 68.94 144.517 68.73 143.427 68.73H140.353V74.715H143.427C144.517 74.715 145.409 74.4 146.004 73.875Z"
                fill="black" />
            <path id="Vector_10"
                d="M160.677 78.705V80.385H151.655V67.155H160.478V68.835H153.44V72.93H159.685V74.505H153.44V78.81H160.677V78.705Z"
                fill="black" />
        </g>
        <g id="SOUNDBOX">
            <path id="&#38;copy"
                d="M204.991 0.585022C205.784 0.585022 206.677 0.795012 207.47 1.21501C208.263 1.63501 208.858 2.26502 209.353 3.10502C209.75 3.94502 210.047 4.78502 210.047 5.73002C210.047 6.67502 209.849 7.51502 209.353 8.35502C208.957 9.19501 208.263 9.82502 207.569 10.35C206.776 10.77 205.983 11.085 205.091 11.085C204.198 11.085 203.405 10.875 202.612 10.35C201.819 9.93003 201.224 9.19501 200.728 8.35502C200.332 7.51502 200.034 6.67502 200.034 5.73002C200.034 4.78502 200.233 3.94502 200.728 3.10502C201.125 2.26502 201.819 1.63501 202.612 1.21501C203.405 0.795012 204.198 0.585022 204.991 0.585022ZM204.991 1.42503C204.297 1.42503 203.603 1.63503 202.909 1.95003C202.216 2.26503 201.72 2.89503 201.323 3.52503C200.927 4.26003 200.728 4.99502 200.728 5.73002C200.728 6.46502 200.927 7.20002 201.323 7.93502C201.72 8.67002 202.216 9.19502 202.81 9.51002C203.405 9.82502 204.198 10.14 204.892 10.14C205.586 10.14 206.28 9.93002 206.974 9.51002C207.668 9.09002 208.164 8.56502 208.461 7.93502C208.858 7.20002 208.957 6.57002 208.957 5.73002C208.957 4.99502 208.759 4.26003 208.362 3.52503C207.966 2.79002 207.47 2.26503 206.776 1.95003C206.082 1.63503 205.685 1.42503 204.991 1.42503ZM202.81 8.77502V3.10502H204.595C205.19 3.10502 205.685 3.10502 205.983 3.21002C206.28 3.31502 206.478 3.52502 206.677 3.73502C206.875 3.94502 206.974 4.26003 206.974 4.57503C206.974 4.99503 206.875 5.31002 206.578 5.62502C206.28 5.94002 205.884 6.15002 205.487 6.15002C205.685 6.25502 205.784 6.36001 205.983 6.46501C206.181 6.67501 206.478 7.09502 206.776 7.62002L207.47 8.77502H206.379L205.884 7.93502C205.487 7.20002 205.19 6.78002 204.991 6.57002C204.793 6.46502 204.595 6.36002 204.297 6.36002H203.802V8.77502H202.81ZM203.703 5.52002H204.793C205.289 5.52002 205.586 5.41502 205.784 5.31002C205.983 5.20502 206.082 4.99502 206.082 4.68002C206.082 4.47002 206.082 4.36502 205.983 4.26002C205.884 4.15502 205.784 4.05002 205.586 3.94502C205.388 3.84002 205.19 3.84001 204.694 3.84001H203.703V5.52002Z"
                fill="black" />
            <path id="X"
                d="M181.198 30.93L173.466 7.935H180.802L185.461 23.16H185.56L190.418 7.935H197.06L189.328 30.93L197.358 55.08H190.022L184.966 38.7H184.866L179.612 55.08H172.97L181.198 30.93Z"
                fill="black" />
            <path id="O"
                d="M153.44 52.665C151.655 50.565 150.664 47.73 150.664 43.95V19.17C150.664 15.39 151.556 12.45 153.44 10.455C155.224 8.35499 157.901 7.30499 161.371 7.30499C164.841 7.30499 167.418 8.35499 169.302 10.455C171.086 12.555 172.078 15.39 172.078 19.17V43.845C172.078 47.625 171.185 50.565 169.302 52.56C167.517 54.66 164.841 55.71 161.371 55.71C157.901 55.71 155.224 54.66 153.44 52.665ZM164.94 44.37V18.645C164.94 15.495 163.75 14.025 161.272 14.025C158.892 14.025 157.603 15.6 157.603 18.645V44.37C157.603 47.52 158.793 48.99 161.272 48.99C163.75 48.99 164.94 47.415 164.94 44.37Z"
                fill="black" />
            <path id="B"
                d="M126.177 7.93497H136.685C140.254 7.93497 142.931 8.77497 144.616 10.56C146.302 12.345 147.095 15.075 147.095 18.75V20.64C147.095 23.055 146.698 25.05 146.004 26.52C145.31 28.095 144.121 29.145 142.634 29.775V29.88C146.103 31.14 147.888 34.395 147.888 39.75V43.74C147.888 47.415 146.996 50.145 145.211 52.035C143.427 53.925 140.75 54.87 137.28 54.87H126.276V7.93497H126.177ZM135.892 27.045C137.28 27.045 138.371 26.625 139.065 25.89C139.759 25.155 140.155 23.895 140.155 22.005V19.38C140.155 17.7 139.858 16.44 139.263 15.705C138.668 14.97 137.776 14.55 136.586 14.55H133.216V27.045H135.892ZM137.181 48.255C138.371 48.255 139.362 47.94 139.957 47.205C140.552 46.47 140.849 45.315 140.849 43.635V39.54C140.849 37.335 140.453 35.865 139.759 35.025C139.065 34.185 137.875 33.765 136.289 33.765H133.216V48.255H137.181Z"
                fill="black" />
            <path id="D"
                d="M100.996 7.93497H111.703C115.172 7.93497 117.75 8.87997 119.534 10.875C121.319 12.87 122.112 15.705 122.112 19.59V43.425C122.112 47.205 121.22 50.145 119.534 52.14C117.75 54.135 115.172 55.08 111.703 55.08H100.996V7.93497ZM111.504 48.255C112.694 48.255 113.487 47.94 114.181 47.205C114.776 46.47 115.073 45.315 115.073 43.74V19.275C115.073 17.7 114.776 16.44 114.181 15.81C113.586 15.075 112.694 14.76 111.504 14.76H107.935V48.465H111.504V48.255Z"
                fill="#FF7511" />
            <path id="N"
                d="M74.5259 7.93497H83.3491L90.1897 36.18H90.2888V7.93497H96.5345V55.08H89.3966L80.9698 20.64H80.6724V55.08H74.4267V7.93497H74.5259Z"
                fill="#FF7511" />
            <path id="U"
                d="M52.0216 52.665C50.2371 50.67 49.3448 47.73 49.3448 43.845V7.93497H56.3836V44.475C56.3836 46.05 56.681 47.31 57.2759 47.94C57.8707 48.675 58.7629 48.99 59.9526 48.99C61.1422 48.99 61.9354 48.675 62.6293 47.94C63.2241 47.205 63.5216 46.05 63.5216 44.475V7.93497H70.2629V43.845C70.2629 47.625 69.3707 50.565 67.5862 52.665C65.8017 54.66 63.2241 55.71 59.8535 55.71C56.3836 55.71 53.806 54.66 52.0216 52.665Z"
                fill="#FF7511" />
            <path id="O_2"
                d="M27.0388 52.665C25.2543 50.565 24.2629 47.73 24.2629 43.95V19.17C24.2629 15.39 25.1552 12.45 27.0388 10.455C28.8233 8.35499 31.5 7.30499 34.9698 7.30499C38.4397 7.30499 41.0172 8.35499 42.9009 10.455C44.6853 12.555 45.6767 15.39 45.6767 19.17V43.845C45.6767 47.625 44.7845 50.565 42.9009 52.56C41.1164 54.66 38.4397 55.71 34.9698 55.71C31.5 55.71 28.8233 54.66 27.0388 52.665ZM38.5388 44.37V18.645C38.5388 15.495 37.3491 14.025 34.8707 14.025C32.4914 14.025 31.2026 15.6 31.2026 18.645V44.37C31.2026 47.52 32.3922 48.99 34.8707 48.99C37.25 48.99 38.5388 47.415 38.5388 44.37Z"
                fill="#FF7511" />
            <path id="S"
                d="M3.14655 52.665C1.36207 50.67 0.56897 47.73 0.56897 43.845V41.115H7.21121V44.37C7.21121 47.415 8.40086 48.99 10.8793 48.99C12.069 48.99 12.9612 48.57 13.556 47.835C14.1509 47.1 14.4483 45.945 14.4483 44.265C14.4483 42.27 14.0517 40.59 13.1595 39.015C12.2672 37.545 10.7802 35.655 8.5 33.555C5.625 30.825 3.64224 28.41 2.45259 26.205C1.26293 24 0.767246 21.585 0.767246 18.855C0.767246 15.18 1.65948 12.24 3.44397 10.245C5.22845 8.25001 7.80604 7.20001 11.1767 7.20001C14.5474 7.20001 17.0259 8.25001 18.8103 10.245C20.4957 12.24 21.3879 15.18 21.3879 19.065V21.06H14.7457V18.645C14.7457 17.07 14.4483 15.81 13.8535 15.075C13.2586 14.34 12.3664 13.92 11.2759 13.92C8.89655 13.92 7.80604 15.39 7.80604 18.435C7.80604 20.115 8.20259 21.69 9.09483 23.265C9.98707 24.735 11.5733 26.52 13.8535 28.62C16.8276 31.35 18.8103 33.765 19.9009 35.97C20.9914 38.175 21.5862 40.8 21.5862 43.74C21.5862 47.625 20.694 50.565 18.9095 52.665C17.125 54.765 14.4483 55.815 11.0776 55.815C7.40949 55.71 4.93104 54.66 3.14655 52.665Z"
                fill="#FF7511" />
        </g>
    </g>
</svg>