<?xml version="1.0" encoding="utf-8"?>
<!-- Generator: Adobe Illustrator 22.0.0, SVG Export Plug-In . SVG Version: 6.00 Build 0)  -->
<svg version="1.1" id="Layer_1" xmlns="http://www.w3.org/2000/svg" xmlns:xlink="http://www.w3.org/1999/xlink" x="0px" y="0px"
	 viewBox="0 0 45 45" style="enable-background:new 0 0 45 45;" xml:space="preserve">
<style type="text/css">
	.st0{fill:#FF540A;}
	.st1{fill:#FFFFFF;}
</style>
<g>
	<path class="st0" d="M37,45H8c-4.4,0-8-3.6-8-8V8c0-4.4,3.6-8,8-8h29c4.4,0,8,3.6,8,8v29C45,41.4,41.4,45,37,45z"/>
	<g>
		<path class="st1" d="M10.1,10.8l9.7,12.9L10,34.2h2.2l8.5-9.2l6.9,9.2H35L24.8,20.6l9-9.8h-2.2l-7.8,8.5l-6.3-8.5H10.1z
			 M13.3,12.4h3.4l15.1,20.2h-3.4L13.3,12.4z"/>
	</g>
</g>
</svg>
