<?xml version="1.0" encoding="utf-8"?>
<!-- Generator: Adobe Illustrator 22.0.0, SVG Export Plug-In . SVG Version: 6.00 Build 0)  -->
<svg version="1.1" id="Layer_1" xmlns="http://www.w3.org/2000/svg" xmlns:xlink="http://www.w3.org/1999/xlink" x="0px" y="0px"
	 viewBox="0 0 45 45" style="enable-background:new 0 0 45 45;" xml:space="preserve">
<style type="text/css">
	.st0{clip-path:url(#SVGID_2_);}
	.st1{fill:#E6E6E6;}
	.st2{fill:#1A1C1F;}
</style>
<g id="layer_1">
	<g>
		<g>
			<defs>
				<rect id="SVGID_1_" width="45" height="45"/>
			</defs>
			<clipPath id="SVGID_2_">
				<use xlink:href="#SVGID_1_"  style="overflow:visible;"/>
			</clipPath>
			<g class="st0">
				<path class="st1" d="M37,45H8c-4.4,0-8-3.6-8-8V8c0-4.4,3.6-8,8-8h29c4.4,0,8,3.6,8,8v29C45,41.4,41.4,45,37,45"/>
				<path class="st2" d="M34.8,16.3c-0.3-1.1-1.2-2-2.3-2.3c-2-0.5-10.1-0.5-10.1-0.5s-8,0-10.1,0.5c-1.1,0.3-2,1.2-2.3,2.3
					c-0.5,2-0.5,6.2-0.5,6.2s0,4.2,0.5,6.2c0.3,1.1,1.2,2,2.3,2.3c2,0.5,10.1,0.5,10.1,0.5s8,0,10.1-0.5c1.1-0.3,2-1.2,2.3-2.3
					c0.5-2,0.5-6.2,0.5-6.2S35.4,18.3,34.8,16.3"/>
				<path class="st1" d="M26.6,22.5l-6.7-3.9v7.7L26.6,22.5z"/>
			</g>
		</g>
	</g>
</g>
</svg>
