<svg width="230" height="315" viewBox="0 0 230 315" fill="none" xmlns="http://www.w3.org/2000/svg">
<g id="IMG_DEFAULT">
<rect width="230" height="315" fill="#fafafa"/>
<g id="TEXT">
<g id="MUSIC STORE">
<path id="Vector" d="M63.0517 280.14V270.48L58.4914 278.565H57.6983L53.1379 270.585V280.14H51.4526V266.91H52.9396L58.194 276.255L63.3491 266.91H64.8362V280.14H63.0517Z" fill="black"/>
<path id="Vector_2" d="M69.7931 278.775C68.9008 277.725 68.4052 276.36 68.4052 274.47V266.91H70.1896V274.365C70.1896 277.2 71.3793 278.565 73.6595 278.565C74.8491 278.565 75.6422 278.25 76.237 277.515C76.8319 276.78 77.1293 275.73 77.1293 274.26V266.805H78.8146V274.365C78.8146 276.255 78.3189 277.725 77.4267 278.67C76.5345 279.615 75.2457 280.14 73.5603 280.14C71.875 280.14 70.6853 279.72 69.7931 278.775Z" fill="black"/>
<path id="Vector_3" d="M83.4741 279.825C82.5819 279.51 81.8879 279.09 81.3922 278.67L82.0862 277.2C82.5819 277.62 83.1767 278.04 83.8707 278.355C84.6638 278.67 85.3578 278.775 86.1509 278.775C87.1422 278.775 87.9353 278.565 88.431 278.25C88.9267 277.83 89.2241 277.41 89.2241 276.78C89.2241 276.36 89.125 275.94 88.8276 275.625C88.5302 275.31 88.2328 275.1 87.8362 274.995C87.4397 274.89 86.8448 274.68 86.0517 274.47C85.1595 274.26 84.3664 273.945 83.7716 273.735C83.1767 273.525 82.681 273.105 82.2845 272.58C81.8879 272.055 81.6897 271.425 81.6897 270.585C81.6897 269.85 81.8879 269.22 82.1853 268.695C82.5819 268.17 83.0776 267.645 83.7716 267.33C84.4655 267.015 85.3578 266.805 86.4483 266.805C87.1422 266.805 87.9353 266.91 88.6293 267.12C89.3233 267.33 89.9181 267.645 90.5129 267.96L89.9181 269.43C89.4224 269.115 88.8276 268.8 88.2328 268.59C87.6379 268.38 87.0431 268.275 86.4483 268.275C85.4569 268.275 84.6638 268.485 84.1681 268.905C83.6724 269.325 83.375 269.85 83.375 270.375C83.375 270.795 83.4741 271.215 83.7716 271.53C84.069 271.845 84.3664 272.055 84.8621 272.16C85.2586 272.37 85.8535 272.475 86.5474 272.685C87.4397 272.895 88.2328 273.21 88.8276 273.42C89.4224 273.63 89.9181 274.05 90.3147 274.47C90.7112 274.89 90.9095 275.625 90.9095 276.465C90.9095 277.2 90.7112 277.83 90.4138 278.355C90.1164 278.88 89.5216 279.405 88.8276 279.72C88.1336 280.035 87.2414 280.245 86.1509 280.245C85.2586 280.245 84.3664 280.035 83.4741 279.825Z" fill="black"/>
<path id="Vector_4" d="M93.6853 266.91H95.4698V280.14H93.6853V266.91Z" fill="black"/>
<path id="Vector_5" d="M101.418 279.405C100.427 278.775 99.6336 278.04 99.0388 276.99C98.444 275.94 98.1465 274.785 98.1465 273.525C98.1465 272.265 98.444 271.11 99.0388 270.06C99.6336 269.01 100.427 268.275 101.418 267.645C102.409 267.015 103.599 266.805 104.789 266.805C105.78 266.805 106.672 267.015 107.466 267.33C108.259 267.645 108.953 268.17 109.547 268.905L108.358 270.06C107.466 269.01 106.276 268.485 104.888 268.485C103.996 268.485 103.103 268.695 102.409 269.115C101.616 269.535 101.121 270.165 100.625 270.9C100.228 271.635 100.03 272.58 100.03 273.525C100.03 274.47 100.228 275.31 100.625 276.15C101.022 276.885 101.616 277.515 102.409 277.935C103.203 278.355 103.996 278.565 104.888 278.565C106.276 278.565 107.466 278.04 108.358 276.99L109.547 278.145C108.953 278.775 108.259 279.3 107.466 279.72C106.672 280.14 105.78 280.245 104.789 280.245C103.5 280.245 102.409 279.93 101.418 279.405Z" fill="black"/>
<path id="Vector_6" d="M117.875 279.825C116.983 279.51 116.289 279.09 115.793 278.67L116.487 277.2C116.983 277.62 117.578 278.04 118.272 278.355C119.065 278.67 119.759 278.775 120.552 278.775C121.543 278.775 122.336 278.565 122.832 278.25C123.328 277.83 123.625 277.41 123.625 276.78C123.625 276.36 123.526 275.94 123.228 275.625C122.931 275.31 122.634 275.1 122.237 274.995C121.841 274.89 121.246 274.68 120.453 274.47C119.56 274.26 118.767 273.945 118.172 273.735C117.578 273.525 117.082 273.105 116.685 272.58C116.289 272.055 116.091 271.425 116.091 270.585C116.091 269.85 116.289 269.22 116.586 268.695C116.983 268.17 117.478 267.645 118.172 267.33C118.866 267.015 119.759 266.805 120.849 266.805C121.543 266.805 122.336 266.91 123.03 267.12C123.724 267.33 124.319 267.645 124.914 267.96L124.319 269.43C123.823 269.115 123.228 268.8 122.634 268.59C122.039 268.38 121.444 268.275 120.849 268.275C119.858 268.275 119.065 268.485 118.569 268.905C118.073 269.325 117.776 269.85 117.776 270.375C117.776 270.795 117.875 271.215 118.172 271.53C118.47 271.845 118.767 272.055 119.263 272.16C119.659 272.37 120.254 272.475 120.948 272.685C121.841 272.895 122.634 273.21 123.228 273.42C123.823 273.63 124.319 274.05 124.716 274.47C125.112 274.89 125.31 275.625 125.31 276.465C125.31 277.2 125.112 277.83 124.815 278.355C124.517 278.88 123.922 279.405 123.228 279.72C122.534 280.035 121.642 280.245 120.552 280.245C119.56 280.245 118.668 280.035 117.875 279.825Z" fill="black"/>
<path id="Vector_7" d="M130.267 268.485H126.004V266.805H136.315V268.485H132.052V280.035H130.267V268.485Z" fill="black"/>
<path id="Vector_8" d="M140.379 279.405C139.388 278.775 138.595 278.04 138 276.99C137.405 275.94 137.108 274.785 137.108 273.525C137.108 272.265 137.405 271.11 138 270.06C138.595 269.01 139.388 268.17 140.379 267.645C141.371 267.12 142.56 266.805 143.75 266.805C145.039 266.805 146.129 267.12 147.121 267.645C148.112 268.275 148.905 269.01 149.5 270.06C150.095 271.11 150.392 272.265 150.392 273.525C150.392 274.785 150.095 275.94 149.5 276.99C148.905 278.04 148.112 278.775 147.121 279.405C146.129 280.035 144.94 280.245 143.75 280.245C142.461 280.245 141.371 279.93 140.379 279.405ZM146.228 277.935C146.922 277.515 147.517 276.885 147.914 276.15C148.31 275.415 148.509 274.47 148.509 273.525C148.509 272.58 148.31 271.74 147.914 270.9C147.517 270.06 146.922 269.535 146.228 269.115C145.534 268.695 144.642 268.485 143.75 268.485C142.858 268.485 141.966 268.695 141.272 269.115C140.478 269.535 139.983 270.165 139.487 270.9C138.991 271.635 138.892 272.58 138.892 273.525C138.892 274.47 139.091 275.31 139.487 276.15C139.884 276.99 140.478 277.515 141.272 277.935C142.065 278.355 142.858 278.565 143.75 278.565C144.642 278.565 145.534 278.355 146.228 277.935Z" fill="black"/>
<path id="Vector_9" d="M161.496 280.14L158.819 276.045C158.522 276.045 158.224 276.045 158.026 276.045H154.953V280.035H153.168V266.805H158.026C159.612 266.805 160.901 267.225 161.892 268.065C162.784 268.905 163.28 270.06 163.28 271.425C163.28 272.475 163.082 273.315 162.586 274.05C162.091 274.785 161.397 275.31 160.504 275.625L163.478 280.035H161.496V280.14ZM160.504 273.63C161.099 273.105 161.397 272.37 161.397 271.425C161.397 270.48 161.099 269.745 160.504 269.22C159.909 268.695 159.017 268.485 157.927 268.485H154.853V274.47H157.927C159.017 274.47 159.909 274.155 160.504 273.63Z" fill="black"/>
<path id="Vector_10" d="M175.177 278.46V280.14H166.155V266.91H174.978V268.59H167.94V272.685H174.185V274.26H167.94V278.565H175.177V278.46Z" fill="black"/>
</g>
<g id="SOUNDBOX">
<path id="&#38;copy" d="M219.491 200.34C220.284 200.34 221.177 200.55 221.97 200.97C222.763 201.39 223.358 202.02 223.853 202.86C224.25 203.7 224.547 204.54 224.547 205.485C224.547 206.43 224.349 207.27 223.853 208.11C223.457 208.95 222.763 209.58 222.069 210.105C221.276 210.525 220.483 210.84 219.591 210.84C218.698 210.84 217.905 210.63 217.112 210.105C216.319 209.685 215.724 208.95 215.228 208.11C214.832 207.27 214.534 206.43 214.534 205.485C214.534 204.54 214.733 203.7 215.228 202.86C215.625 202.02 216.319 201.39 217.112 200.97C217.905 200.55 218.698 200.34 219.491 200.34ZM219.491 201.18C218.797 201.18 218.103 201.39 217.409 201.705C216.716 202.02 216.22 202.65 215.823 203.28C215.427 204.015 215.228 204.75 215.228 205.485C215.228 206.22 215.427 206.955 215.823 207.69C216.22 208.425 216.716 208.95 217.31 209.265C217.905 209.58 218.698 209.895 219.392 209.895C220.086 209.895 220.78 209.685 221.474 209.265C222.168 208.845 222.664 208.32 222.961 207.69C223.358 206.955 223.457 206.325 223.457 205.485C223.457 204.75 223.259 204.015 222.862 203.28C222.466 202.545 221.97 202.02 221.276 201.705C220.582 201.39 220.185 201.18 219.491 201.18ZM217.31 208.53V202.86H219.095C219.69 202.86 220.185 202.86 220.483 202.965C220.78 203.07 220.978 203.28 221.177 203.49C221.375 203.7 221.474 204.015 221.474 204.33C221.474 204.75 221.375 205.065 221.078 205.38C220.78 205.695 220.384 205.905 219.987 205.905C220.185 206.01 220.284 206.115 220.483 206.22C220.681 206.43 220.978 206.85 221.276 207.375L221.97 208.53H220.879L220.384 207.69C219.987 206.955 219.69 206.535 219.491 206.325C219.293 206.22 219.095 206.115 218.797 206.115H218.302V208.53H217.31ZM218.203 205.275H219.293C219.789 205.275 220.086 205.17 220.284 205.065C220.483 204.96 220.582 204.75 220.582 204.435C220.582 204.225 220.582 204.12 220.483 204.015C220.384 203.91 220.284 203.805 220.086 203.7C219.888 203.595 219.69 203.595 219.194 203.595H218.203V205.275Z" fill="black"/>
<path id="X" d="M195.698 230.685L187.966 207.69H195.302L199.961 222.915H200.06L204.918 207.69H211.56L203.828 230.685L211.858 254.835H204.522L199.466 238.455H199.366L194.112 254.835H187.47L195.698 230.685Z" fill="black"/>
<path id="O" d="M167.94 252.42C166.155 250.32 165.164 247.485 165.164 243.705V218.925C165.164 215.145 166.056 212.205 167.94 210.21C169.724 208.11 172.401 207.06 175.871 207.06C179.341 207.06 181.918 208.11 183.802 210.21C185.586 212.31 186.578 215.145 186.578 218.925V243.6C186.578 247.38 185.685 250.32 183.802 252.315C182.017 254.415 179.341 255.465 175.871 255.465C172.401 255.465 169.724 254.415 167.94 252.42ZM179.44 244.125V218.4C179.44 215.25 178.25 213.78 175.772 213.78C173.392 213.78 172.103 215.355 172.103 218.4V244.125C172.103 247.275 173.293 248.745 175.772 248.745C178.25 248.745 179.44 247.17 179.44 244.125Z" fill="black"/>
<path id="B" d="M140.677 207.69H151.185C154.754 207.69 157.431 208.53 159.116 210.315C160.802 212.1 161.595 214.83 161.595 218.505V220.395C161.595 222.81 161.198 224.805 160.504 226.275C159.81 227.85 158.621 228.9 157.134 229.53V229.635C160.603 230.895 162.388 234.15 162.388 239.505V243.495C162.388 247.17 161.496 249.9 159.711 251.79C157.927 253.68 155.25 254.625 151.78 254.625H140.776V207.69H140.677ZM150.392 226.8C151.78 226.8 152.871 226.38 153.565 225.645C154.259 224.91 154.655 223.65 154.655 221.76V219.135C154.655 217.455 154.358 216.195 153.763 215.46C153.168 214.725 152.276 214.305 151.086 214.305H147.716V226.8H150.392ZM151.681 248.01C152.871 248.01 153.862 247.695 154.457 246.96C155.052 246.225 155.349 245.07 155.349 243.39V239.295C155.349 237.09 154.953 235.62 154.259 234.78C153.565 233.94 152.375 233.52 150.789 233.52H147.716V248.01H151.681Z" fill="black"/>
<path id="D" d="M115.496 207.69H126.203C129.672 207.69 132.25 208.635 134.034 210.63C135.819 212.625 136.612 215.46 136.612 219.345V243.18C136.612 246.96 135.72 249.9 134.034 251.895C132.25 253.89 129.672 254.835 126.203 254.835H115.496V207.69ZM126.004 248.01C127.194 248.01 127.987 247.695 128.681 246.96C129.276 246.225 129.573 245.07 129.573 243.495V219.03C129.573 217.455 129.276 216.195 128.681 215.565C128.086 214.83 127.194 214.515 126.004 214.515H122.435V248.22H126.004V248.01Z" fill="#FF7511"/>
<path id="N" d="M89.0259 207.69H97.8491L104.69 235.935H104.789V207.69H111.034V254.835H103.897L95.4698 220.395H95.1724V254.835H88.9267V207.69H89.0259Z" fill="#FF7511"/>
<path id="U" d="M66.5215 252.42C64.7371 250.425 63.8448 247.485 63.8448 243.6V207.69H70.8836V244.23C70.8836 245.805 71.181 247.065 71.7759 247.695C72.3707 248.43 73.2629 248.745 74.4526 248.745C75.6422 248.745 76.4353 248.43 77.1293 247.695C77.7241 246.96 78.0215 245.805 78.0215 244.23V207.69H84.7629V243.6C84.7629 247.38 83.8707 250.32 82.0862 252.42C80.3017 254.415 77.7241 255.465 74.3534 255.465C70.8836 255.465 68.306 254.415 66.5215 252.42Z" fill="#FF7511"/>
<path id="O_2" d="M41.5388 252.42C39.7543 250.32 38.7629 247.485 38.7629 243.705V218.925C38.7629 215.145 39.6552 212.205 41.5388 210.21C43.3233 208.11 46 207.06 49.4698 207.06C52.9397 207.06 55.5173 208.11 57.4009 210.21C59.1854 212.31 60.1767 215.145 60.1767 218.925V243.6C60.1767 247.38 59.2845 250.32 57.4009 252.315C55.6164 254.415 52.9397 255.465 49.4698 255.465C46 255.465 43.3233 254.415 41.5388 252.42ZM53.0388 244.125V218.4C53.0388 215.25 51.8492 213.78 49.3707 213.78C46.9914 213.78 45.7026 215.355 45.7026 218.4V244.125C45.7026 247.275 46.8923 248.745 49.3707 248.745C51.75 248.745 53.0388 247.17 53.0388 244.125Z" fill="#FF7511"/>
<path id="S" d="M17.6466 252.42C15.8621 250.425 15.069 247.485 15.069 243.6V240.87H21.7112V244.125C21.7112 247.17 22.9009 248.745 25.3793 248.745C26.569 248.745 27.4612 248.325 28.056 247.59C28.6509 246.855 28.9483 245.7 28.9483 244.02C28.9483 242.025 28.5517 240.345 27.6595 238.77C26.7672 237.3 25.2802 235.41 23 233.31C20.125 230.58 18.1422 228.165 16.9526 225.96C15.7629 223.755 15.2672 221.34 15.2672 218.61C15.2672 214.935 16.1595 211.995 17.944 210C19.7285 208.005 22.306 206.955 25.6767 206.955C29.0474 206.955 31.5259 208.005 33.3103 210C34.9957 211.995 35.8879 214.935 35.8879 218.82V220.815H29.2457V218.4C29.2457 216.825 28.9483 215.565 28.3535 214.83C27.7586 214.095 26.8664 213.675 25.7759 213.675C23.3966 213.675 22.306 215.145 22.306 218.19C22.306 219.87 22.7026 221.445 23.5948 223.02C24.4871 224.49 26.0733 226.275 28.3535 228.375C31.3276 231.105 33.3103 233.52 34.4009 235.725C35.4914 237.93 36.0862 240.555 36.0862 243.495C36.0862 247.38 35.194 250.32 33.4095 252.42C31.625 254.52 28.9483 255.57 25.5776 255.57C21.9095 255.465 19.431 254.415 17.6466 252.42Z" fill="#FF7511"/>
</g>
</g>
<g id="ICON">
<g id="bars-sounds">
<path id="bar-sound-5" d="M149.599 141.645C147.121 141.645 145.039 139.44 145.039 136.815V107.1C145.039 104.475 147.121 102.27 149.599 102.27C152.078 102.27 154.159 104.475 154.159 107.1V136.815C154.159 139.44 152.078 141.645 149.599 141.645Z" fill="#FF7511"/>
<path id="bar-sound-4" d="M131.159 156.975C128.681 156.975 126.599 154.77 126.599 152.145V91.77C126.599 89.145 128.681 86.94 131.159 86.94C133.638 86.94 135.72 89.145 135.72 91.77V152.145C135.819 154.77 133.737 156.975 131.159 156.975Z" fill="#FF7511"/>
<path id="bar-sound-3" d="M112.819 147.945C110.341 147.945 108.259 145.74 108.259 143.115V100.695C108.259 98.07 110.341 95.865 112.819 95.865C115.297 95.865 117.379 98.07 117.379 100.695V143.115C117.478 145.845 115.397 147.945 112.819 147.945Z" fill="#FF7511"/>
<path id="bar-sound-2" d="M94.4784 156.975C92 156.975 89.9181 154.77 89.9181 152.145V91.77C89.9181 89.145 92 86.94 94.4784 86.94C96.9569 86.94 99.0388 89.145 99.0388 91.77V152.145C99.1379 154.77 97.056 156.975 94.4784 156.975Z" fill="#FF7511"/>
<path id="bar-sound-1" d="M76.1379 141.645C73.6595 141.645 71.5776 139.44 71.5776 136.815V107.1C71.5776 104.475 73.6595 102.27 76.1379 102.27C78.6164 102.27 80.6983 104.475 80.6983 107.1V136.815C80.6983 139.44 78.7155 141.645 76.1379 141.645Z" fill="#FF7511"/>
</g>
<path id="Vector_11" d="M159.711 191.415H66.0259C55.7155 191.415 47.1897 182.385 47.1897 171.465V72.345C47.1897 61.425 55.7155 52.395 66.0259 52.395H159.612C169.922 52.395 178.448 61.32 178.448 72.345V171.465C178.547 182.49 170.022 191.415 159.711 191.415Z" stroke="black" stroke-width="10" stroke-miterlimit="10"/>
<path id="Vector_12" d="M16.6552 129.045C13.7802 129.045 11.5 126.525 11.5 123.585V90.09C11.5 87.045 13.8793 84.63 16.6552 84.63C19.5302 84.63 21.8103 87.15 21.8103 90.09V123.585C21.8103 126.63 19.5302 129.045 16.6552 129.045Z" fill="black"/>
<path id="Vector_13" d="M209.082 129.045C206.207 129.045 203.927 126.525 203.927 123.585V90.09C203.927 87.045 206.306 84.63 209.082 84.63C211.957 84.63 214.237 87.15 214.237 90.09V123.585C214.237 126.63 211.957 129.045 209.082 129.045Z" fill="black"/>
<path id="Vector_14" d="M194.608 128.625V55.44C194.608 44.1 185.785 34.755 175.078 34.755H50.6595C39.9526 34.755 31.1293 44.1 31.1293 55.44V128.625" stroke="black" stroke-width="10" stroke-miterlimit="10" stroke-linecap="round"/>
</g>
</g>
</svg>