<?xml version="1.0" encoding="utf-8"?>
<!-- Generator: Adobe Illustrator 22.0.0, SVG Export Plug-In . SVG Version: 6.00 Build 0)  -->
<svg version="1.1" fill="#fff" id="Layer_1" xmlns="http://www.w3.org/2000/svg" xmlns:xlink="http://www.w3.org/1999/xlink" x="0px" y="0px"
	 viewBox="0 0 2500 525.9" style="enable-background:new 0 0 2500 525.9;" xml:space="preserve">
<path d="M947.1,58.3c28.9,0.1,52.3,23.5,52.4,52.4v98c-0.1,28.9-23.5,52.3-52.4,52.4c28.9,0.1,52.3,23.5,52.4,52.4v98
	c-0.1,28.9-23.5,52.3-52.4,52.4H539.7V58.3h101.4v305.4H890c5.1,0,9.2-4.1,9.2-9.2v-39c0-5.1-4.1-9.2-9.2-9.2H693.3v-96.5H890
	c5.1,0,9.2-4.1,9.2-9.2v-39c0-5.1-4.1-9.2-9.2-9.2H693.3V58.3H947.1z M1467,411.5c-0.1,28.9-23.5,52.3-52.4,52.4h-319.9
	c-28.9-0.1-52.3-23.5-52.4-52.4V110.7c0.1-28.9,23.5-52.3,52.4-52.4h319.9c28.9,0.1,52.3,23.5,52.4,52.4V411.5z M1365.9,173.2
	c0-7.1-5.8-12.9-12.9-12.9h-196.9c-7.1,0-12.8,5.8-12.9,12.9V349c0,7.1,5.8,12.9,12.9,12.9h196.9c7.1,0,12.9-5.8,12.9-12.9V173.2z
	 M1860.9,191.1V177c0-3.5-1.4-6.8-3.8-9.1c-2.3-2.3-5.6-3.8-9.1-3.8h-215.2c-3.5,0-6.8,1.5-9.1,3.8c-2.3,2.3-3.8,5.6-3.8,9.1v28.6
	c0,3.5,1.4,6.8,3.8,9.1c2.4,2.4,5.7,3.8,9.1,3.8h279.9c28.9,0.1,52.3,23.5,52.4,52.4v140.7c-0.1,28.9-23.5,52.3-52.4,52.4h-341.4
	c-28.9-0.1-52.3-23.5-52.4-52.4v-69.9h101v17.1c0,3.5,1.4,6.8,3.8,9.1c2.3,2.3,5.6,3.8,9.1,3.8H1848c3.5,0,6.8-1.4,9.1-3.8
	c2.3-2.3,3.8-5.6,3.8-9.1v-32.3c0-3.5-1.4-6.8-3.8-9.1c-2.3-2.3-5.6-3.8-9.1-3.8h-276.8c-28.9-0.1-52.3-23.5-52.4-52.4V110.7
	c0.1-28.9,23.5-52.3,52.4-52.4h341.4c28.9,0.1,52.3,23.5,52.4,52.4v80.4L1860.9,191.1L1860.9,191.1z M2359.1,191.1V177
	c0-3.4-1.3-6.7-3.8-9.1c-2.4-2.4-5.7-3.8-9.1-3.8h-215.3c-7.1,0-12.9,5.7-12.9,12.8c0,0,0,0,0,0v28.6c0,7.1,5.8,12.9,12.9,12.9
	h279.9c28.9,0.1,52.3,23.5,52.4,52.4v140.7c-0.1,28.9-23.5,52.3-52.4,52.4h-341.4c-28.9-0.1-52.3-23.5-52.4-52.4v-69.9h101v17.1
	c0,7.1,5.8,12.9,12.9,12.9l0,0h215.3c3.5,0,6.7-1.4,9.1-3.8c2.4-2.4,3.8-5.7,3.8-9.1v-32.3c0-3.4-1.3-6.7-3.8-9.1
	c-2.4-2.4-5.7-3.8-9.1-3.8h-276.8c-28.9-0.1-52.3-23.5-52.4-52.4V110.7c0.1-28.9,23.5-52.3,52.4-52.4h341.4
	c28.9,0.1,52.3,23.5,52.4,52.4v80.4L2359.1,191.1L2359.1,191.1z M438.8,59.3H160v80h85.9c62.3,0,112.9,50.7,112.9,112.9
	c0,62.3-50.7,112.9-112.9,112.9c-62.3,0-112.9-50.7-112.9-112.9V59.3H36.8v400.9H455V59.3H438.8z M422.6,91.7v336.1H69.2V91.7h31.3
	v160.5c0,80.1,65.2,145.3,145.4,145.3c80.1,0,145.3-65.2,145.3-145.3c0-80.2-65.2-145.4-145.3-145.4h-53.5V91.7H422.6z"/>
</svg>
