<?xml version="1.0" encoding="utf-8"?>
<!-- Generator: Adobe Illustrator 22.0.0, SVG Export Plug-In . SVG Version: 6.00 Build 0)  -->
<svg version="1.1" id="Layer_1" xmlns="http://www.w3.org/2000/svg" xmlns:xlink="http://www.w3.org/1999/xlink" x="0px" y="0px"
	 viewBox="0 0 2500 732" style="enable-background:new 0 0 2500 732;" xml:space="preserve">
<style type="text/css">
	.st0{fill:#FFFFFF;}
</style>
<path class="st0" d="M2014.9,451c-4.9,3.3-9.8,4.9-14.7,6.5l-3.3-3.3c-1.6-3.3,1.6-16.3,1.6-18l8.2-3.3c0,4.9,1.6,8.2,3.3,11.4
	C2011.6,447.7,2014.9,451,2014.9,451z M588.2,233.9c1.6,3.3,1.6,4.9,1.6,8.2v9.8c-21.2,6.5-40.8,14.7-58.8,22.9l4.9-21.2
	C552.3,246.9,568.6,240.4,588.2,233.9L588.2,233.9z M692.6,217.5l6.5-1.6c0-4.9,0-6.5,1.6-9.8c1.6-4.9,3.3-6.5,4.9-9.8l-21.2,6.5
	c1.6,3.3,3.3,4.9,4.9,6.5C691,212.6,691,214.3,692.6,217.5L692.6,217.5z M785.7,176.7c122.4-32.7,259.6-60.4,404.8-80
	c573-80,1064.3-26.1,1097,120.8c8.2,35.9-13.1,75.1-58.8,114.3c0,0-6.5-22.9-19.6-34.3c18-24.5,24.5-49,19.6-71.8
	c-31-140.4-494.6-192.6-1034.9-117.5c-133.1,18.4-265,44.6-395,78.4l-4.9-4.9C790.6,178.4,789,178.4,785.7,176.7L785.7,176.7z
	 M1869.6,486.9c3.3,0,4.9,1.6,8.2,1.6h35.9c-164.9,55.5-375.4,106.1-604,138.8c-574.6,80-1064.3,26.1-1096.9-120.8
	c-11.4-47.3,29.4-99.6,107.7-150.2c18,0,29.4-3.3,45.7-9.8c21.2-8.2,27.8-16.3,39.2-31l-3.3,22.9c-91.4,53.9-142,109.4-130.6,160
	c31,140.4,494.6,192.6,1034.9,117.5C1520.3,584.8,1714.5,539.1,1869.6,486.9z M2101.4,385.7c1.6-9.8,22.9-14.7,34.3-21.2
	c0,0,0,9.8-1.6,18c-1.6,4.9-1.6,9.8-4.9,14.7c-9.8,6.5-21.2,11.4-31,18C2098.1,415.1,2098.1,395.5,2101.4,385.7L2101.4,385.7z
	 M2233.6,522.8c18,0,32.6-14.6,32.7-32.7c0-18-14.7-32.6-32.7-32.6c-18,0-32.7,14.7-32.7,32.6C2201,508.1,2215.6,522.7,2233.6,522.8
	z M2233.6,516.2c-13.1,0-24.5-11.4-24.5-26.1c0-16.3,11.4-26.1,24.5-26.1c14.7,0,26.1,9.8,26.1,26.1c0.2,14.2-11.2,25.9-25.4,26.1
	C2234.1,516.3,2233.8,516.3,2233.6,516.2z M2222.2,508.1h6.5v-16.3h3.2l9.8,16.3h8.2l-9.8-16.3c4.9,0,9.8-3.3,9.8-9.8
	c0-8.2-4.9-11.4-14.7-11.4h-13V508.1z M2228.7,477.1h6.5c3.3,0,6.5,0,6.5,4.9c0,4.9-3.3,4.9-6.5,4.9h-6.5V477.1z M730.2,181.6
	c24.5-13.1,50.6-6.5,60.4,14.7c9.8,14.7,6.5,40.8-8.2,66.9c-14.7,22.9-32.7,45.7-49,55.5c-22.9,16.3-14.7,4.9-6.5-6.5
	c9.8-11.4,22.9-49,22.9-49c-9.8,3.3-29.4,3.3-39.2-18C700.8,219.2,713.9,193.1,730.2,181.6L730.2,181.6z"/>
<path class="st0" d="M1673.7,318.7c0,9.8,22.9-4.9,24.5,16.3c1.6,13.1-16.3,111-16.3,111s0,9.8-19.6,21.2c-9.8,4.9-13.1,11.4,0,11.4
	h115.9c8.2-1.6,11.4-6.5,0-9.8s-13-9.8-13-19.6s14.7-97.9,14.7-97.9c4.9-14.7,13-21.2,18-14.7c4.9,6.5,0,21.2,14.7,27.7
	c18,8.2,40.8,0,52.2-11.4c9.8-9.8,22.9-34.3,14.7-52.2c-6.5-14.7-26.1-26.1-49-14.7c-21.2,9.8-42.4,27.7-44,29.4
	c-3.3,8.2,3.2-19.6,4.9-27.8c1.6-8.2-1.6-11.4-16.3-4.9C1760.2,287.7,1672.1,309,1673.7,318.7L1673.7,318.7z M1993.6,162
	c-13,0-31,3.3-42.4,19.6c-13.1,16.3-16.3,34.3-11.4,47.3c4.9,13.1,14.7,21.2,26.1,24.5c21.2,3.3,37.5-4.9,52.2-21.2
	c11.4-13.1,13-32.7,9.8-45.7C2024.6,175.1,2010,163.7,1993.6,162z M2011.6,286.1c1.6-8.2-1.6-9.8-18-4.9c0,0-6.5,1.6-11.4,3.3
	c-14.7,3.3-71.8,19.6-76.7,21.2c-8.2,3.3-11.4,9.8-3.3,11.4s17.9,4.9,17.9,16.3c-1.6,13.1-22.9,119.2-22.9,119.2
	c-3.8,7.8-11.1,13.2-19.6,14.7c-9.8,3.3-13.1,11.4,0,11.4h112.6c16.3,1.6,22.9-6.5,6.5-11.4c-9.8-3.3-9.8-11.4-9.8-14.7
	C1987.1,439.5,2011.6,286.1,2011.6,286.1L2011.6,286.1z M532.7,214.3c-6.5,16.3-37.5,205.7-40.8,220.4c-1.6,13.1,0,27.8,24.5,31
	c22.9,0,44.1-35.9,55.5-68.6c13.1-29.4,22.9-78.4,27.8-137.1c3.3-35.9-3.3-66.9-24.5-73.4l-1.6-1.6h-8.2
	C539.2,184.9,535.9,201.2,532.7,214.3L532.7,214.3z M602.9,171.8c35.9,0,62,19.6,80,45.7c14.7,27.8,26.1,70.2,19.6,109.4
	c-8.2,45.7-26.1,76.7-53.9,107.7c-26.1,27.8-52.2,40.8-94.7,42.4c-21.2,1.6-191,0-191,0c-14.7,0-13-4.9,1.6-13.1
	c13.1-6.5,22.9-13.1,29.4-29.4c3.3-16.3,39.2-213.8,39.2-213.8c-1.6-3.3,3.3-21.2-19.6-31c-3.3-1.6-49-11.4-78.4,9.8
	c-22.9,18-29.4,35.9-35.9,57.1c-3.3,21.2-9.8,55.5,9.8,66.9c16.3,9.8,32.7-1.6,32.7-1.6c-6.5-1.6-22.9-13.1-19.6-34.3
	c3.3-27.8,13.1-40.8,44.1-45.7c24.5-4.9,37.5,14.7,40.8,32.6c0,26.1-16.3,47.3-34.3,58.8c-19.6,9.8-57.1,21.2-88.1,1.6
	c-21.2-14.7-31-47.3-24.5-71.8c6.5-29.4,21.2-55.5,55.5-75.1c32.6-22.9,65.3-22.9,97.9-22.9c22.9,0,106.1,3.3,153.4,4.9L602.9,171.8
	z"/>
<path class="st0" d="M859.1,336.7c6.5-37.5,18-99.6,21.2-109.4c4.9-13.1,13.1-27.8-3.3-14.7c-18,18-34.3,40.8-47.3,58.8
	c-14.7,21.2-31,47.3-35.9,63.7C793.8,338.3,855.9,336.7,859.1,336.7L859.1,336.7z M780.8,362.8c0,0-9.8,19.6-24.5,53.9
	c-22.9,49-35.9,71.8-84.9,125.7c-34.3,34.3-94.7,75.1-168.1,65.3c-31-3.3-39.2-24.5-40.8-31c-8.2-14.7-6.5-45.7,16.3-63.7
	c34.3-24.5,68.6-3.3,71.8,26.1c1.6,11.4-1.6,49-52.2,44.1c0,0-3.3,11.4,19.6,14.7c26.1,3.3,70.2-14.7,109.4-50.6
	c37.5-37.5,70.2-91.4,106.1-160c34.3-66.9,68.6-124.1,104.5-164.9c39.2-44.1,83.3-47.3,91.4-50.6c21.2,0,37.5,0,57.1-3.3
	c9.8,0,6.5,13.1,0,22.9c-6.5,11.4-35.9,233.4-40.8,254.7c-1.6,8.2,3.3,18,14.7,22.9c11.4,4.9,13.1,9.8,0,9.8H806.9
	c-18-1.6-6.5-9.8,8.2-14.7c18-6.5,24.5-21.2,24.5-26.1c3.3-14.7,16.3-58.8,16.3-75.1H780.8z"/>
<path class="st0" d="M1094.2,459.1c0,0-16.3,16.3-35.9,22.9c-19.6,6.5-39.2,9.8-57.1-3.3c-14.7-11.4-26.1-27.8-31-62
	c-3.3-26.1,4.9-62,26.1-89.8c13.1-14.7,37.5-34.3,63.7-42.4c29.4-9.8,52.2-3.3,62,1.6c1.6,0,11.4-53.9,13-65.3
	c0-9.8-3.3-8.2-18-14.7c-16.3-6.5,8.2-13.1,16.3-14.7c9.8-3.3,68.6-19.6,81.6-26.1c13.1-1.6,13.1,6.5,13.1,6.5
	s-45.7,262.8-44.1,275.9c0,13.1,3.3,16.3,14.7,21.2c9.8,4.9,6.5,8.2-1.6,8.2s-88.1,1.6-97.9,0c-9.8,0-4.9-3.3-4.9-13.1L1094.2,459.1
	L1094.2,459.1z M1112.2,315.5c1.6-9.8-1.6-14.7-6.5-16.3c-14.7-8.2-24.5,1.6-24.5,1.6c-13,11.4-21.2,31-26.1,60.4
	c-1.6,31-4.9,55.5-3.3,68.6c0,4.9,8.2,22.9,22.9,21.2c13.1-1.6,18-8.2,21.2-16.3L1112.2,315.5L1112.2,315.5z"/>
<path class="st0" d="M1332.5,459.1c0,0-16.3,16.3-35.9,22.9c-19.6,6.5-39.2,9.8-57.1-3.3c-14.7-11.4-24.5-27.8-31-62
	c-3.3-26.1,6.5-62,26.1-89.8c13.1-14.7,37.5-34.3,65.3-42.4c27.8-9.8,50.6-3.3,60.4,1.6c1.6,0,11.4-53.9,14.7-65.3
	c0-9.8-3.3-8.2-19.6-14.7c-16.3-6.5,9.8-13.1,16.3-14.7c9.8-3.3,68.5-19.6,81.6-26.1c13-1.6,13,6.5,13,6.5s-45.7,262.8-44.1,275.9
	c0,13.1,3.3,16.3,14.7,21.2c9.8,4.9,6.5,8.2-1.6,8.2s-88.2,1.6-97.9,0c-9.8,0-4.9-3.3-4.9-13.1V459.1L1332.5,459.1z M1350.5,315.5
	c1.6-9.8-1.6-14.7-6.5-16.3c-13-8.2-24.5,1.6-24.5,1.6c-13.1,11.4-19.6,31-26.1,60.4c-1.6,31-3.3,55.5-3.3,68.6
	c0,4.9,9.8,22.9,22.9,21.2c13-1.6,18-8.2,21.2-18L1350.5,315.5L1350.5,315.5z M1561.1,390.6c-8.2,1.6-19.6,9.8-24.5,26.1
	c-4.9,16.3-4.9,22.9,0,31c4.9,8.2,14.7,4.9,14.7,4.9S1556.1,421.6,1561.1,390.6z M1564.3,374.2v1.6V374.2z M1570.8,335.1
	c0-9.8,0-21.2-3.3-26.1c-3.2-8.2-16.3-3.3-19.6-3.3c-4.9,0-13,8.2-3.3,11.4c11.4,4.9,13.1,19.6,8.2,35.9
	c-8.2,14.7-34.3,31-44.1,32.6c-6.5,0-26.1,1.6-35.9-11.4c-9.8-21.2,16.3-49,34.3-60.4c24.5-16.3,50.6-24.5,78.4-29.4
	c29.4-4.9,39.2-1.6,53.9,9.8c13,8.2,16.3,21.2,13,37.5c0,0-14.7,91.4-17.9,104.5c-1.6,11.4,8.2,11.4,14.7,4.9
	c6.5-6.5,9.8-13.1,16.3-18c6.5-4.9,9.8,4.9,0,14.7c-16.3,19.6-19.6,29.4-50.6,44.1c-16.3,6.5-40.8,6.5-50.6-3.3
	c-11.4-14.7-6.5-18-22.9-4.9c-17.9,11.4-45.7,14.7-62,11.4c-14.7-3.3-27.8-13.1-29.4-34.3c-1.6-16.3,4.9-29.4,18-40.8
	c11.4-9.8,44.1-21.2,57.1-24.5c19.6-6.5,26.1-6.5,35.9-9.8h1.6l1.6-1.6C1567.6,356.3,1569.2,341.6,1570.8,335.1L1570.8,335.1z
	 M2132.4,299.2h-1.6c-18,1.6-29.4,29.4-39.2,84.9c-9.8,50.6-13.1,88.2,6.5,88.2c26.1,0,35.9-42.4,45.7-88.2
	c6.5-44.1,8.2-76.7-4.9-83.3C2137.3,300.8,2135.7,299.2,2132.4,299.2L2132.4,299.2z M2158.5,286.1c15.6,2.8,30.2,9.6,42.4,19.6
	c13.1,11.4,27.8,45.7,24.5,76.7c-3.3,29.4-16.3,52.2-39.2,71.8c-19.6,19.6-60.4,31-84.9,31c-22.9,0-60.4-9.8-73.5-31
	c-14.7-19.6-21.2-42.4-14.7-71.8c6.5-31,35.9-68.6,62-81.6c29.4-18,53.9-18,57.1-16.3h21.2C2155.2,284.5,2156.9,284.5,2158.5,286.1
	L2158.5,286.1z"/>
</svg>
