<?xml version="1.0" encoding="utf-8"?>
<!-- Generator: Adobe Illustrator 22.0.0, SVG Export Plug-In . SVG Version: 6.00 Build 0)  -->
<svg version="1.1" fill="#fff" id="Layer_1" xmlns="http://www.w3.org/2000/svg" xmlns:xlink="http://www.w3.org/1999/xlink" x="0px" y="0px"
	 viewBox="0 0 2500 1507.4" style="enable-background:new 0 0 2500 1507.4;" xml:space="preserve">
<path d="M1931.7,433.4c-6.3,4.5-13.6,7.6-21.6,7.6c-15.4,0-22.4-7.9-28.6-21c-11.6-24.4-11.2-56.5-11.6-80.9
	c-0.3-19.2,0.2-38.4,0-57.7c-0.1-14.7,0-25.5,0-40.3c0-35.1-15-56.3-33.1-59.6c-20.5-3.7-57.3-7.3-80.5,4.3v345.3
	c0,22.7-21.3,44-52.7,44c-34.2,0-60.6-39.4-60.6-66.9V308.4c0-22.4,16-47.1,39.8-47.1v-53.8c-59.5,0-106.1,44.5-134.9,80.8
	c-27.3,34.4-42.7,61.5-61.9,61.5c-22.8,0-31.1-14.7-31.1-24.6c0-17.1,4.8-38.1-1.9-38.1c-30.8,3.3-169.9,34.1-222.9,80.2
	c-126.3,109.8,64,222.6,82.2,235.1c13.7,9.4,28.1,17.6,40.4,29c14.5,13.5,15.2,37,6.4,53.3c-7.6,14-18.3,21.1-36.1,21.1
	c-32.9,0-46.7-38.4-53.8-49c-3-4.6-4.7-11.3-10.4-13c-6.8-2-18.1,2.4-24.9,3.7c-12.9,2.4-66.5,22.6-74.7,22.5
	c-6-0.1-13.4,0.8-18.5-3.2c-9.4-7.3-14.2-26.6-14.2-36.9c0-7-0.1-14-0.1-21c0-13.9,0.1-27.8,0.1-41.7l0-23.7
	c0-23.5,4.3-85.3-11-107.6c-6.6-9.6-24.7-20.5-43.5-23.4c-15-2.3-31.1,0.1-45,3.9c-10.1,2.7-18.9,6.1-22.5,12.9
	c-3.9,7.5-3.4,16.9-3.4,24.6v46c0,0.6,28.5-1,31.8,0.9c9.5,5.4,8.6,19.7,8.6,29c0,60-3.8,124.2-3.3,184.2
	c0.3,26.9-4.5,70.4-28.2,88.5c-37.9,28.9-85.1-0.7-85.1-41.9v-56c0-32.4,0-62.5,0-94.9v-108V56c-56.2,20.7-78.9,29.2-115.1,42.5
	c0,22.2-0.1,44.3,0,66.4c0.1,41.6-0.1,83.2,0,124.8c0.1,47.1-0.1,94.2,0,141.2c0.1,38-0.3,75.9,0,113.9
	c0.5,62.9-3.8,124.3-17.1,185.9c-2,9.3-3.8,18.7-6.2,27.8c-4,15.3-8.8,32.3-20.9,43.3c-13.3,12.2-33,13.9-49.1,6.1
	c-22.3-10.9-21.7-33.9-20.8-54.8c1-20.4-0.6-41-0.1-61.4c0.9-42.9-0.8-85.9-0.2-128.9c0.2-9.7,0.1-19.4,0.1-29l-114,30
	c0,20.1-0.3,40.3,0.1,60.4c0.4,22.9,0.1,46.4,0,69.5c0,32.7-2.7,65.7-9.9,97.6c-6.4,28-17.3,64.7-37.3,86.2
	c-9.2,9.9-27.4,14.1-39.6,5.7c-11.5-8-17.4-24-17.4-37.7V602.5l-103.1,30.6v173.3c0,204-100.4,218.3-146.2,204V472.3
	c0-91.9,27.1-136.6,113.2-136.8c34.7-0.1,38.3,8.7,38.3,36.7v144.3c46.4-13.2,93.7-32.2,140.1-45.4v-162
	c0-137.3-166.8-74.8-218.7-58.5c-51.3,16.1-190.7,67.6-190.7,145.9v664.2c0,32.7,19.9,73,60.8,73c89.6,0,181.5-127.8,191.8-27.7
	v360.1l133.8-44.3v-290.8c0-50.1,1.6-113.8,31.1-156.2c2.6-3.6,16.4-21.6,31.5-34.6c18.5-15.9,36-11.6,40.8-3.7
	c10.8,17.6,29.7,44.5,49.1,51.4c18,6.3,30-1.9,45.3-13.9c13-10.3,22-26.5,29.2-41.1c9.8-19.8,25.8-55.4,48.1-55.4
	c19.1,0,7.3-3.1,15.4,0.5c27.6,12.4,15.2,27.8,22.7,52c63.9-15.8,140.7-39.5,154.3-44.6c30.4-11.4,61.1-22.5,90-37.4
	c27.1-13.9,59.1-32.6,78.4-56.7c7.5-9.4,6.1-22.6,13-32.4c6.9-9.8,19.4-14.5,31-14.4c14.6,0.1,18.1,1.2,29.3,12.5v47.3h19.5
	c3,0,11.4-8.4,14.2-10.1c17.5-10.9,37.3-17.8,57.8-20c29.5-3.2,53.1-8.6,80.7-20.1c15.4-6.4,33.6-13.2,47.8-21.9
	c32.1-19.7,65-54.6,65-94.6c0,0,5.9-71.8-86.9-129.8c-23.9-14.9-53.6-29.3-72.2-51.4c-15.1-18-28.4-39.9-6.7-56.2
	c9.5-7.1,25.3-10.7,37.2-10.7c16.3-0.1,30.5,14,39.9,25.8c4.8,6.2,9.5,13.6,11.8,21.2c3.7,11.9,9.4,17.6,22.4,17.5
	c13.2-0.1,19.5-11.4,28.4-19.3c11.9-10.7,25.6-19.1,40.5-25c11.2-4.4,28.2-3.7,37.6,8c10.8,13.5,5,48.9,5,65.4
	c0,28.4-0.5,38.5,0,61.2c3.4,156.1,185.2,120.7,326.2,25.9c17.7-11.8,24.1-21.1,36.3-38.3c8.8-12.3,18.1-24.1,31.6-32
	c9.2-5.4,24.2-4.9,32,1.1c9.7,7.3,10.9,16.2,11.2,27.7c0.1,2.7-1.2,26.2,3.7,24.6c50.5-18.6,72.4-27.1,110-40.9v-84.7V234.2
	c13.3-33.4,60.4-24.8,63.3-0.8v555.5c0,22.6,15.6,52.2,34.8,64.6c6.1,3.9,12.9,6.8,20,8.5c27.4,6.3,60.7-0.8,87-11.1
	c39.2-15.4,68.1-44.1,80.6-84c2.9-9.3,5.1-19.8,5.1-29.5v-57.6c-5.2,1.3-28.1,9.1-40.7,13.4c0,4.4,0.5,23.3,0.4,25.1
	c-0.7,12-1.9,24.3-6.8,35.5c-2.5,5.7-6.8,10.5-12.2,13.6c-6.2,3.4-12.7,2.7-19.5,2.7c-35.1,0-35.4-34.3-35.4-44.2
	c0-43.1,0.1-486.1,0-518.5V88.1V69.8c0-15.6-30.4-13.5-38.6-11.3c-12.6,3.4-137.8,47.5-137.8,46.2c0.4-8.2,0-9.8,0-17.9
	c0-23.4-60.7,2.4-84,11.8c-12.1,4.9-31.7,10.8-31.7,13.5c0,7.4,0.3,22.8,0,32.1c-0.9,31.8-1.8,63.6-2.8,95.4
	c-1.2,36.2-3.8,72.4-10.8,108.1c-1.9,10.1-4.3,20.1-7,30c-4.2,15.4-9.2,32.1-19.5,44.6C1939.8,426.5,1935.9,430.2,1931.7,433.4
	L1931.7,433.4z"/>
<path d="M708.7,329.3c0,41.8-33,75.7-73.8,75.7c-40.8,0-73.8-33.9-73.8-75.7s33-75.7,73.8-75.7C675.6,253.7,708.7,287.5,708.7,329.3
	L708.7,329.3z"/>
</svg>
