<?xml version="1.0" encoding="utf-8"?>
<!-- Generator: Adobe Illustrator 22.0.0, SVG Export Plug-In . SVG Version: 6.00 Build 0)  -->
<svg version="1.1" fill="#fff" id="Layer_1" xmlns="http://www.w3.org/2000/svg" xmlns:xlink="http://www.w3.org/1999/xlink" x="0px" y="0px"
	 viewBox="0 0 2500 1088.9" style="enable-background:new 0 0 2500 1088.9;" xml:space="preserve">
<path d="M825.5,527.9c-11.1,13.8,4.1,23.5,13.8,13.8c9.7-9.7,81.5-67.7,67.6-173.9c-4.2-20.7-19.3-11.1-29-5.5
	c-9.6,5.5-41.4,30.4-55.2,41.4c-13.8,11.1-8.3,19.3-4.1,26.2C831,452,853.1,487.9,825.5,527.9L825.5,527.9z M1413.7,541.8
	c-11.1,13.8,4.1,23.5,13.8,13.8c9.6-9.6,80.1-55.2,66.3-161.5c-4.2-20.7-22.1-19.3-31.8-13.8c-9.6,5.5-41.4,29-55.2,40
	c-13.8,11.1-8.3,19.3-4.2,26.2C1417.8,464.5,1441.3,501.8,1413.7,541.8L1413.7,541.8z M1539.9,521c-11.1,13.8,4.2,23.5,13.8,13.8
	c9.6-9.7,81.4-58,67.6-164.3c-4.2-20.7-19.3-20.7-29-15.2c-9.6,5.5-46.9,33.1-60.7,44.2c-13.8,11-8.3,19.3-4.2,26.2
	C1542.7,442.3,1567.5,481,1539.9,521L1539.9,521z"/>
<path d="M2430,709.2c-56.6,18-75.9-16.6-85.6-31.7c-9.7-15.2-29-52.5-53.9-117.3s-95.2-42.8-110.4-35.9
	c-15.2,6.9-56.6,33.1-75.9,56.6c-41.4-100.8-132.5-16.6-142.2-2.8c-5.6,8-2.8,20.7,8.3,18c40-2.8,48.3,71.8,44.2,104.9
	c-56.6,34.5-81.5-4.1-103.5-31.7c-22.1-27.6-64.2-89.7-78.7-106.3c-30.4-37.3-81.5-42.8-106.3-30.4c-24.9,12.4-51.1,41.4-60.8,52.5
	c-9.6,11.1,1.4,24.8,13.8,15.2c31.8-27.6,65.6,7.6,83.5,29.7c-71.8,23.5-101.5,76.6-95.9,98.7c-24.9,13.8-52.5,5.5-55.2-35.9
	c-2.8-41.4,9.6-95.2,15.2-120.1c9.7-52.5-34.5-35.9-52.5-31.7c-17.9,4.2-52.5,27.6-80,48.3l6.9-37.3c4.2-12.4-5.5-20.7-15.2-15.2
	c-9.6,5.5-19.3,11-34.5,22.1c-15.2,11.1-53.9,41.4-59.4,63.5c-1.4-29-48.3-82.8-62.1-98c-117.3-127-143.6-158.8-193.2-242.9
	c-49.7-84.2-40-191.9-20.7-212.6c6.7-7.1,4.1-22.1-9.7-13.8c-63.5,30.4-85.6,88.4-88.4,132.5c-11,135.3,157.4,321.6,205.7,372.7
	c-144.9,42.8-151.8,140.8-140.8,183.6c-48.3,11.1-51.1-31.7-49.7-73.1c1.4-41.4,23.5-191.9,27.6-223.6c4.2-31.7-8.3-67.6-52.5-58
	c-44.2,9.7-85.6,58-95.2,70.4c-9.7,12.4,0,23.5,9.7,13.8c20.7-15.2,44.2,5.5,38.6,35.9c-5.5,30.4-23.5,174-16.6,227.8
	c-46.9,30.4-66.3,5.5-66.3-11.1c0-24.9,8.3-131.1,9.7-157.4c1.4-26.2-13.8-31.8-30.4-20.7L768,602.9c-12.4,9.7-8.3,22.1,4.1,16.6
	c11.1-5.5,23.5,2.8,23.5,15.2l-4.1,127c-59.3,52.5-162.9,29-209.8,9.7c-53.8-20.7-200.1-56.6-271.9-67.7
	c20.7-37.3,218.1-120.1,259.5-139.4c120.1-58,204.3-162.9,208.5-171.2s4.2-18-12.4-13.8c-96.6,16.6-259.5-16.6-327.1-37.3
	c-71.8-20.7-154.6-1.4-200.2,23.5c0,0-78.7,41.4-109,56.6c-9.7,11.1-4.2,23.5,13.8,13.8c78.7-38.6,214-22.1,247.1-12.4
	c33.1,9.7,173.9,40,216.7,41.4c-52.4,63.5-260.9,149.1-379.6,193.2C108.2,702.3,57.2,778.2,53,789.2c-4.1,11.1-6.9,24.9,19.3,17.9
	c190.5-29,381,26.2,509.4,59.4c128.4,33.1,204.3-46.9,230.5-78.7c26.2,38.6,117.3,17.9,140.8-16.6c33.1,63.5,128.4,37.3,147.7,6.9
	c52.4,66.3,176.7,12.4,205.7-8.3c29-20.7,70.4-48.3,81.4-86.9c0,29-11.1,115.9-12.4,136.6c-1.4,20.7-5.5,78.7-37.3,113.2
	c-31.7,34.5-110.4,48.3-154.6,42.8c-44.2-5.5-48.3,23.5-35.9,35.9s29,31.7,52.4,27.6c145-15.2,245.7-133.9,259.5-201.5
	c13.8-67.7,23.5-153.2,24.8-191.9c1.4-38.6,52.5-33.1,51.1-6.9c-1.4,26.2-16.6,102.1,17.9,150.5c34.5,48.3,109,2.7,127-12.4
	c30.4,62.1,150.4,23.5,171.2-5.5c41.4,69,122.9,24.8,142.2,11c-5.5,22.1-1.4,38.6,18,34.5c75.9-13.8,88.3-89.7,92.5-139.4
	c4.1-49.7,30.4-71.8,62.1-74.6c31.7-2.8,67.6,99.4,75.9,128.4c6.9,20.7,30.4,66.2,81.5,66.2c64.9,0,111.8-59.4,117.3-69
	C2446.6,718.9,2446.6,702.3,2430,709.2L2430,709.2z M1245.7,739.6c-44.2,1.4-67.7-29-64.9-66.2c2.7-37.3,30.4-69,73.1-81.5
	c27.6,23.5,52.5,49.7,53.8,84.2C1309.2,710.6,1289.8,738.2,1245.7,739.6z M1749.5,736.8c-23-28.3,0-62.1,31.7-78.7
	c11.1,17.9,35.9,53.8,48.3,74.5C1808.9,749.3,1773,765.8,1749.5,736.8L1749.5,736.8z"/>
<path d="M2406.2,574.1c-21.7,0-40,16.7-40,39.3c0,22.8,18.3,39.5,40,39.5c21.5,0,39.8-16.7,39.8-39.5
	C2446,590.8,2427.7,574.1,2406.2,574.1z M2406.2,646.3c-18,0-32.1-13.9-32.1-32.9c0-18.7,14.1-32.7,32.1-32.7
	c17.8,0,31.8,14.1,31.8,32.7C2438.1,632.4,2424,646.3,2406.2,646.3L2406.2,646.3z"/>
<path d="M2412.6,616.2c6.7-0.8,11.8-4.4,11.8-12.5c0-9-5.3-12.9-16.1-12.9h-17.3v45.4h6.9v-19.7h7.9l12,19.7h7.7L2412.6,616.2
	L2412.6,616.2z M2397.9,610.7v-14h9.4c4.8,0,9.9,1,9.9,6.7c0,7-5.2,7.4-11.1,7.4H2397.9L2397.9,610.7z"/>
</svg>
